<svg xmlns="http://www.w3.org/2000/svg" width="416" height="94" viewBox="0 0 416 94">
<defs>
    <style>
      .cls-1 {
        fill: #fff;
        fill-rule: evenodd;
      }
    </style>
  </defs>
  <path id="Amazon_Drive" data-name="Amazon Drive" class="cls-1" d="M732.61,4759.65c-13.53,10.01-33.148,15.34-50.039,15.34a90.448,90.448,0,0,1-61.127-23.38c-1.267-1.15-.137-2.72,1.386-1.83a122.741,122.741,0,0,0,61.16,16.28,121.436,121.436,0,0,0,46.653-9.58C732.933,4755.51,734.852,4757.99,732.61,4759.65Zm5.633-6.44c-1.732-2.22-11.443-1.06-15.8-.53-1.32.16-1.527-1-.335-1.84,7.744-5.45,20.438-3.88,21.911-2.05s-0.389,14.6-7.648,20.69c-1.115.93-2.177,0.43-1.683-.8C736.315,4764.59,739.973,4755.43,738.243,4753.21Zm-16.628-40.9v-5.3a1.31,1.31,0,0,1,1.34-1.34h23.691a1.319,1.319,0,0,1,1.367,1.33v4.55c0,0.76-.646,1.76-1.785,3.34l-12.272,17.56a26.325,26.325,0,0,1,13.516,2.91,2.439,2.439,0,0,1,1.256,2.07v5.65a1.271,1.271,0,0,1-1.745,1.22,27.24,27.24,0,0,0-25.034.04,1.257,1.257,0,0,1-1.686-1.22v-5.38a6.385,6.385,0,0,1,.882-3.64l14.218-20.45H722.983A1.326,1.326,0,0,1,721.615,4712.31Zm-86.423,33.1h-7.207a1.356,1.356,0,0,1-1.291-1.22l0-37.09a1.358,1.358,0,0,1,1.39-1.33H634.8a1.348,1.348,0,0,1,1.309,1.24v4.84h0.136c1.747-4.68,5.044-6.87,9.486-6.87,4.507,0,7.332,2.19,9.351,6.87a10.631,10.631,0,0,1,18.3-2.81c2.287,3.13,1.818,7.65,1.818,11.63l-0.006,23.41a1.358,1.358,0,0,1-1.39,1.33h-7.2a1.356,1.356,0,0,1-1.294-1.33v-19.66a47.893,47.893,0,0,0-.2-6.95c-0.539-2.5-2.153-3.2-4.239-3.2a4.779,4.779,0,0,0-4.307,3.05c-0.739,1.87-.671,4.99-0.671,7.1v19.66a1.359,1.359,0,0,1-1.389,1.33h-7.2a1.354,1.354,0,0,1-1.293-1.33L646,4724.42c0-4.14.676-10.22-4.439-10.22-5.181,0-4.978,5.93-4.978,10.22l0,19.66A1.359,1.359,0,0,1,635.192,4745.41Zm133.22-40.43c10.711,0,16.5,9.22,16.5,20.92,0,11.31-6.391,20.29-16.5,20.29-10.5,0-16.218-9.21-16.218-20.68C752.194,4713.96,757.979,4704.98,768.412,4704.98Zm0.065,7.58c-5.317,0-5.653,7.25-5.653,11.78s-0.068,14.2,5.588,14.2c5.6,0,5.868-7.8,5.868-12.56a34.283,34.283,0,0,0-1.079-9.83A4.516,4.516,0,0,0,768.477,4712.56Zm30.305,32.85H791.6a1.356,1.356,0,0,1-1.293-1.33l-0.012-37.1a1.363,1.363,0,0,1,1.385-1.21h6.685a1.368,1.368,0,0,1,1.282,1.03v5.68h0.135c2.018-5.08,4.843-7.5,9.822-7.5a9.443,9.443,0,0,1,8.411,4.37c1.883,2.97,1.883,7.97,1.883,11.56v23.33a1.366,1.366,0,0,1-1.38,1.17h-7.226a1.355,1.355,0,0,1-1.284-1.17v-20.13c0-4.06.472-9.99-4.509-9.99a4.716,4.716,0,0,0-4.169,2.96,16.566,16.566,0,0,0-1.146,7.03v19.97A1.378,1.378,0,0,1,798.782,4745.41Zm-96.055-17.71c0,2.82.068,5.16-1.348,7.66a5.848,5.848,0,0,1-4.99,3.29c-2.765,0-4.383-2.11-4.383-5.24,0-6.15,5.508-7.27,10.721-7.27v1.56Zm7.266,17.62a1.486,1.486,0,0,1-1.7.17,17.709,17.709,0,0,1-4.13-4.82c-3.959,4.04-6.759,5.25-11.885,5.25-6.067,0-10.789-3.75-10.789-11.26a12.285,12.285,0,0,1,7.69-11.81c3.909-1.72,9.37-2.03,13.551-2.5v-0.94c0-1.72.136-3.76-.876-5.24a4.81,4.81,0,0,0-4.046-1.88c-2.75,0-5.192,1.41-5.792,4.34a1.526,1.526,0,0,1-1.253,1.33l-6.986-.76a1.273,1.273,0,0,1-1.077-1.51c1.607-8.5,9.261-11.07,16.12-11.07,3.507,0,8.091.94,10.855,3.6,3.507,3.29,3.169,7.67,3.169,12.44v11.26c0,3.38,1.4,4.87,2.722,6.69a1.364,1.364,0,0,1-.025,1.92c-1.471,1.24-4.086,3.52-5.527,4.81ZM608.238,4727.7c0,2.82.069,5.16-1.349,7.66a5.842,5.842,0,0,1-4.987,3.29c-2.765,0-4.384-2.11-4.384-5.24,0-6.15,5.507-7.27,10.72-7.27v1.56Zm7.268,17.62a1.487,1.487,0,0,1-1.7.17,17.72,17.72,0,0,1-4.132-4.82c-3.957,4.04-6.76,5.25-11.884,5.25-6.067,0-10.789-3.75-10.789-11.26a12.287,12.287,0,0,1,7.688-11.81c3.911-1.72,9.372-2.03,13.552-2.5v-0.94c0-1.72.135-3.76-.875-5.24a4.814,4.814,0,0,0-4.045-1.88c-2.749,0-5.194,1.41-5.794,4.34a1.525,1.525,0,0,1-1.253,1.33l-6.986-.76a1.271,1.271,0,0,1-1.076-1.51c1.605-8.5,9.259-11.07,16.12-11.07,3.506,0,8.092.94,10.855,3.6,3.506,3.29,3.17,7.67,3.17,12.44v11.26c0,3.38,1.4,4.87,2.72,6.69a1.366,1.366,0,0,1-.023,1.92c-1.472,1.24-4.09,3.52-5.528,4.81Zm257.743-.15h-7.622v-5.77h-0.165a14.542,14.542,0,0,1-6.058,5.01,18.622,18.622,0,0,1-7.917,1.78,21.275,21.275,0,0,1-8.421-1.61,18.575,18.575,0,0,1-6.437-4.5,20.254,20.254,0,0,1-4.107-6.71,23.267,23.267,0,0,1-1.44-8.32,23.606,23.606,0,0,1,1.44-8.36,19.76,19.76,0,0,1,4.107-6.71,19.022,19.022,0,0,1,6.437-4.46,21.275,21.275,0,0,1,8.421-1.61,18.683,18.683,0,0,1,8.131,1.82,13.968,13.968,0,0,1,5.844,4.97h0.165v-29.71h7.622v64.18Zm-20.825-6.11a13.679,13.679,0,0,0,5.5-1.06,12.128,12.128,0,0,0,4.148-2.89,12.592,12.592,0,0,0,2.626-4.41,17.628,17.628,0,0,0,0-11.3,12.776,12.776,0,0,0-2.626-4.41,12.128,12.128,0,0,0-4.148-2.89,14.812,14.812,0,0,0-11,0,12.075,12.075,0,0,0-4.149,2.89,12.774,12.774,0,0,0-2.625,4.41,17.628,17.628,0,0,0,0,11.3,12.59,12.59,0,0,0,2.625,4.41,12.075,12.075,0,0,0,4.149,2.89A13.69,13.69,0,0,0,852.424,4739.06Zm28.325-34.13h7.621v6.2h0.165a10.764,10.764,0,0,1,2.033-2.93,13.423,13.423,0,0,1,2.839-2.25,15.121,15.121,0,0,1,3.425-1.49,13,13,0,0,1,3.728-.55,10.6,10.6,0,0,1,3.384.51l-0.338,8.23c-0.62-.17-1.24-0.3-1.86-0.42a10.656,10.656,0,0,0-1.861-.17q-5.592,0-8.552,3.14t-2.963,9.77v20.2h-7.621v-40.24Zm27.735-12.02a5.646,5.646,0,1,1,1.647,3.95A5.374,5.374,0,0,1,908.484,4692.91Zm1.778,12.02h7.621v40.24h-7.621v-40.24Zm12.485,0h8.807l12.025,30.82,11.515-30.82h8.131l-15.753,40.24h-8.379Zm48.072,22.92a10.067,10.067,0,0,0,1.144,4.8,12.019,12.019,0,0,0,3,3.69,13.714,13.714,0,0,0,4.32,2.38,15.31,15.31,0,0,0,5.079.85,11.372,11.372,0,0,0,6.181-1.65,19.91,19.91,0,0,0,4.831-4.38l5.751,4.42q-6.342,8.235-17.776,8.23a22.115,22.115,0,0,1-8.593-1.61,18.727,18.727,0,0,1-6.526-4.46,19.773,19.773,0,0,1-4.107-6.71,23.762,23.762,0,0,1-1.434-8.36,21.938,21.938,0,0,1,1.565-8.36,20.606,20.606,0,0,1,4.32-6.71,19.822,19.822,0,0,1,6.561-4.46,21.144,21.144,0,0,1,8.3-1.61,19.745,19.745,0,0,1,9.02,1.87,17.741,17.741,0,0,1,6.05,4.88,19.309,19.309,0,0,1,3.433,6.79,28.594,28.594,0,0,1,1.06,7.69v2.71H970.819Zm24.05-6.11a16.054,16.054,0,0,0-.806-4.67,10.3,10.3,0,0,0-2.157-3.69,9.887,9.887,0,0,0-3.6-2.46,13.04,13.04,0,0,0-5.038-.9,12.324,12.324,0,0,0-5.127,1.06,12.513,12.513,0,0,0-3.934,2.76,12.916,12.916,0,0,0-2.5,3.78,10.428,10.428,0,0,0-.889,4.12h24.05Z" transform="translate(-587 -4681)"/>
</svg>
