<svg xmlns="http://www.w3.org/2000/svg" width="448" height="54" viewBox="0 0 448 54">
  <metadata><?xpacket begin="﻿" id="W5M0MpCehiHzreSzNTczkc9d"?>
<x:xmpmeta xmlns:x="adobe:ns:meta/" x:xmptk="Adobe XMP Core 5.6-c138 79.159824, 2016/09/14-01:09:01        ">
   <rdf:RDF xmlns:rdf="http://www.w3.org/1999/02/22-rdf-syntax-ns#">
      <rdf:Description rdf:about=""/>
   </rdf:RDF>
</x:xmpmeta>
                                                                                                    
                                                                                                    
                                                                                                    
                                                                                                    
                                                                                                    
                                                                                                    
                                                                                                    
                                                                                                    
                                                                                                    
                                                                                                    
                                                                                                    
                                                                                                    
                                                                                                    
                                                                                                    
                                                                                                    
                                                                                                    
                                                                                                    
                                                                                                    
                                                                                                    
                                                                                                    
                           
<?xpacket end="w"?></metadata>
<defs>
    <style>
      .cls-1 {
        fill: #fff;
        fill-rule: evenodd;
      }
    </style>
  </defs>
  <path id="Microsoft_Azure" data-name="Microsoft Azure" class="cls-1" d="M1873.23,4866.99h-5.81v-33.22c0-2.53.25-5.83,0.51-9.63h-0.26a21.932,21.932,0,0,1-1.51,4.82l-16.66,37.77h-2.78l-16.65-37.27a24.917,24.917,0,0,1-1.52-5.07h-0.25a94.421,94.421,0,0,1,.25,9.64v32.96H1823V4817.8h7.57l15.14,34.48a52.44,52.44,0,0,1,2.28,5.83h0.25a55.462,55.462,0,0,0,2.27-6.08l15.4-34.23h7.32v49.19h0Zm16.65-47.92a2.925,2.925,0,0,1-1.01,2.53,3.188,3.188,0,0,1-2.52,1.02,2.885,2.885,0,0,1-2.52-1.02,3.452,3.452,0,0,1-1.01-2.78,3.254,3.254,0,0,1,1.01-2.54,3.213,3.213,0,0,1,2.52-1.01,2.906,2.906,0,0,1,2.52,1.01A4.224,4.224,0,0,1,1889.88,4819.07Zm-0.75,47.92h-5.56v-35.24h5.56v35.24Zm33.06-1.53a16.922,16.922,0,0,1-9.59,2.54,16.3,16.3,0,0,1-14.64-8.62,18.688,18.688,0,0,1-2.02-9.13c0-5.83,1.77-10.39,5.05-13.94s7.82-5.32,13.38-5.32a16.473,16.473,0,0,1,8.07,1.77v5.83a14.323,14.323,0,0,0-8.33-2.79,11.418,11.418,0,0,0-8.83,3.81c-2.27,2.53-3.28,6.08-3.28,10.14s1.01,7.35,3.28,9.63a11.582,11.582,0,0,0,8.58,3.55,13.642,13.642,0,0,0,8.58-3.04v5.57h-0.25Zm24.74-27.88a7.225,7.225,0,0,0-4.3-1.02,7.079,7.079,0,0,0-6.05,3.55c-1.52,2.28-2.27,5.33-2.27,9.13v18h-5.56v-35.49h5.56v7.35h0.25a13.325,13.325,0,0,1,3.53-5.83,7.564,7.564,0,0,1,5.55-2.03,9.716,9.716,0,0,1,3.29.51v5.83h0Zm35.08,11.66c0-5.58-1.26-10.14-4.29-13.69-2.78-3.3-6.82-4.82-12.12-4.82-5.55,0-9.84,1.78-13.12,5.07s-4.8,7.86-4.8,13.69c0,5.58,1.52,9.89,4.55,13.19s7.06,5.07,12.36,5.07a16.9,16.9,0,0,0,12.62-5.07c3.28-3.3,4.8-7.86,4.8-13.44h0Zm-8.33,10.14c-1.77,2.28-4.8,3.55-8.33,3.55a11.193,11.193,0,0,1-8.58-3.55c-2.27-2.28-3.28-5.58-3.28-9.89s1.01-7.6,3.03-10.14a11.178,11.178,0,0,1,8.58-3.55,10.651,10.651,0,0,1,8.33,3.55c2.02,2.28,3.03,5.83,3.03,10.14S1975.45,4857.1,1973.68,4859.38Zm34.32-1.77a9.035,9.035,0,0,1-3.53,7.35c-2.27,2.03-5.55,2.79-9.34,2.79a17.863,17.863,0,0,1-8.58-2.03v-6.09a13.9,13.9,0,0,0,9.09,3.3c4.54,0,6.56-1.52,6.56-4.82a4.863,4.863,0,0,0-1.26-3.29,20.734,20.734,0,0,0-5.81-3.3,17.334,17.334,0,0,1-6.56-4.31,9.292,9.292,0,0,1-2.02-6.09,9.785,9.785,0,0,1,3.53-7.35,12.9,12.9,0,0,1,8.84-3.04,15.272,15.272,0,0,1,7.57,1.77v5.58a12.6,12.6,0,0,0-7.83-2.53,8.691,8.691,0,0,0-4.54,1.26,4.855,4.855,0,0,0-1.76,3.55,5,5,0,0,0,1.26,3.55,26.693,26.693,0,0,0,5.3,3.05c3.28,1.52,5.55,2.78,7.07,4.56a10.361,10.361,0,0,1,2.01,6.09h0Zm33.83-22.06c-2.78-3.3-6.82-4.82-12.12-4.82-5.55,0-9.84,1.78-13.12,5.07s-4.8,7.86-4.8,13.69c0,5.58,1.52,9.89,4.54,13.19s7.07,5.07,12.37,5.07a16.9,16.9,0,0,0,12.62-5.07c3.28-3.3,4.8-7.86,4.8-13.44h0A21.65,21.65,0,0,0,2041.83,4835.55Zm-4.3,23.83c-1.76,2.28-4.79,3.55-8.32,3.55a11.2,11.2,0,0,1-8.59-3.55c-2.27-2.28-3.28-5.58-3.28-9.89s1.01-7.6,3.03-10.14a11.193,11.193,0,0,1,8.58-3.55,10.636,10.636,0,0,1,8.33,3.55c2.02,2.28,3.03,5.83,3.03,10.14S2039.55,4857.1,2037.53,4859.38Zm31.55-39.55a8.287,8.287,0,0,0-3.78-1.01c-4.04,0-5.81,2.53-5.81,7.35v5.58h8.33v4.81h-8.33v30.43h-5.8v-30.43h-6.06v-4.81h6.06v-5.58a12.375,12.375,0,0,1,3.03-8.62,11.412,11.412,0,0,1,8.33-3.55,15.42,15.42,0,0,1,4.03.51v5.32h0Zm18.93,46.9a10.4,10.4,0,0,1-5.3,1.02c-6.05,0-9.08-3.55-9.08-10.4v-20.79h-6.06v-4.81h6.06v-8.62l5.55-1.78v10.4h8.83v4.81h-8.83v19.78a8.822,8.822,0,0,0,1.26,5.07c0.76,1.01,2.02,1.52,4.04,1.52a5.324,5.324,0,0,0,3.53-1.01v4.81h0Zm39.88-48.93h-6.05l-18.43,49.19h6.31l4.8-13.7h20.94l5.05,13.7h6.31Zm-11.61,30.17,7.57-21.04a21.842,21.842,0,0,0,.76-3.3h0.25a12.466,12.466,0,0,0,.76,3.3l7.82,21.04h-17.16Zm62.09-14.7-20.95,28.9h20.45v4.82h-28.78v-1.78l20.7-28.65h-18.68v-4.82h27.01v1.53h0.25Zm33.57,33.72h-5.55v-5.58h-0.26c-2.27,4.31-5.8,6.34-10.85,6.34-8.33,0-12.62-5.07-12.62-14.96v-21.05h5.55v20.29c0,7.35,2.78,11.15,8.59,11.15a8.622,8.622,0,0,0,6.81-3.04c1.77-2.03,2.52-4.56,2.52-7.86v-20.54h5.56v35.24l0.25,0.01h0Zm27.76-29.41a7.192,7.192,0,0,0-4.29-1.02,7.107,7.107,0,0,0-6.06,3.55c-1.51,2.28-2.27,5.33-2.27,9.13v18h-5.55v-35.49h5.55v7.35h0.26a13.233,13.233,0,0,1,3.53-5.83,7.564,7.564,0,0,1,5.55-2.03,9.6,9.6,0,0,1,3.28.51v5.83h0Zm27.51-2.03q-3.78-4.56-10.6-4.56a15.822,15.822,0,0,0-8.32,2.28,16.322,16.322,0,0,0-5.81,6.59,24.365,24.365,0,0,0-2.02,9.63c0,5.83,1.51,10.14,4.29,13.44s6.56,4.82,11.61,4.82,9.09-1.02,12.12-3.3v-5.32a17.235,17.235,0,0,1-10.86,3.8,11.267,11.267,0,0,1-8.33-3.04q-3.03-3.045-3.02-9.13H2271v-2.79C2271,4842.65,2269.74,4838.59,2267.21,4835.55Zm-2.02,10.39h0v-0.25h-18.67a13.358,13.358,0,0,1,3.53-7.35,9.132,9.132,0,0,1,6.56-2.79,7.8,7.8,0,0,1,6.31,2.79c1.48,1.73,2.23,4.18,2.27,7.35h0.01Z" transform="translate(-1823 -4814)"/>
</svg>
