<svg xmlns="http://www.w3.org/2000/svg" width="416" height="94" viewBox="0 0 416 94">
  <defs>
    <style>
      .cls-1 {
        fill: #fff;
        fill-rule: evenodd;
      }
    </style>
  </defs>
  <path id="Backblaze" data-name="Backblaze" class="cls-1" d="M734.447,5001.97s0.777-12.27,10.655-19.78c13.335-10.13,4.566-28.15,4.552-27.22-0.009.55,13.283,7.16,12.951,20.37a27.112,27.112,0,0,1-2.283,7.61c-1.7,3.25-3.044,6.78-3.044,9.89a19.154,19.154,0,0,0,2.283,8.37c1.25,2.67,4.916,17.5-7.61,17.5C751.951,5018.71,734.447,5019.4,734.447,5001.97ZM790,5019.47s0.07-11.21-11.415-19.02c-10.254-6.97-8.675-21.81-3.8-26.63-7.9,4.53-12.43,12.12-12.177,18.26,0,0,.587,5.89,2.284,9.13a18.745,18.745,0,0,1,2.282,9.17c0,3.11-1.794,5.67-3.044,8.33s-4.154,17.5,8.372,17.5C772.5,5036.21,790,5036.87,790,5019.47Zm-57.837-3.8s-2.9,21.62,15.981,29.67,29.753,1.34,35.768-6.09h0s-15.292,4.61-21.309,0-6.088-14.45-6.088-14.45S741.279,5025.22,732.165,5015.67Zm79.919,16.87h15.433a28.335,28.335,0,0,0,5.961-.63,15.64,15.64,0,0,0,5.205-2.09,11.191,11.191,0,0,0,3.661-3.84,11.572,11.572,0,0,0,1.392-5.9,9.394,9.394,0,0,0-2.6-6.96,11.19,11.19,0,0,0-6.658-3.15v-0.12a11.507,11.507,0,0,0,5.387-3.39,8.782,8.782,0,0,0,2.057-5.99,10.021,10.021,0,0,0-1.149-4.96,9.9,9.9,0,0,0-3-3.36,12.161,12.161,0,0,0-4.206-1.88,20.306,20.306,0,0,0-4.782-.57h-16.7v42.84Zm7.625-36.55h6.113q4.357,0,6.415,1.21a4.393,4.393,0,0,1,2.058,4.12,5.07,5.07,0,0,1-2,4.29,9.492,9.492,0,0,1-5.81,1.52h-6.779v-11.14Zm0,17.67h7.142c3.106,0,5.426.45,6.96,1.33s2.3,2.46,2.3,4.72a5.553,5.553,0,0,1-.938,3.39,6.067,6.067,0,0,1-2.36,1.94,10.407,10.407,0,0,1-3.117.88,25.693,25.693,0,0,1-3.147.21h-6.839v-12.47Zm25.418,18.88h8.534l3.873-9.8h18.58l3.994,9.8h8.715l-18.459-42.84h-6.6Zm15.009-16.34,6.718-17.43,6.6,17.43H860.136Zm67.662-21.06a12.5,12.5,0,0,0-3.086-2.9,20.373,20.373,0,0,0-3.874-2.03,22.029,22.029,0,0,0-4.3-1.21,25.051,25.051,0,0,0-4.3-.39,26.2,26.2,0,0,0-9.2,1.57,21.733,21.733,0,0,0-7.353,4.48,20.749,20.749,0,0,0-4.9,7.05,23.233,23.233,0,0,0-1.785,9.29,24.034,24.034,0,0,0,1.694,9.17,20.868,20.868,0,0,0,11.953,11.8,24.857,24.857,0,0,0,9.229,1.66,22.113,22.113,0,0,0,9.623-1.96,19.594,19.594,0,0,0,6.96-5.54l-6.113-4.3a11.8,11.8,0,0,1-4.3,3.6,13.209,13.209,0,0,1-6.112,1.36,14.913,14.913,0,0,1-5.992-1.15,13.1,13.1,0,0,1-4.569-3.23,14.435,14.435,0,0,1-2.935-5,19.018,19.018,0,0,1-1.029-6.41,17.51,17.51,0,0,1,1.059-6.17,14.868,14.868,0,0,1,3.026-4.97,14.266,14.266,0,0,1,4.69-3.33,14.828,14.828,0,0,1,11.378-.15,9.816,9.816,0,0,1,4.418,3.36Zm4.479,37.4H939.9v-21.48h0.182l18.822,21.48h10.712l-21.364-23.05,20.032-19.79H958l-17.914,18.51H939.9V4989.7h-7.625v42.84Zm40.79,0H988.5a28.328,28.328,0,0,0,5.961-.63,15.632,15.632,0,0,0,5.205-2.09,11.2,11.2,0,0,0,3.664-3.84,11.654,11.654,0,0,0,1.39-5.9,9.409,9.409,0,0,0-2.6-6.96,11.21,11.21,0,0,0-6.66-3.15v-0.12a11.541,11.541,0,0,0,5.39-3.39,8.783,8.783,0,0,0,2.05-5.99,9.967,9.967,0,0,0-1.15-4.96,9.812,9.812,0,0,0-2.992-3.36,12.161,12.161,0,0,0-4.206-1.88,20.3,20.3,0,0,0-4.781-.57h-16.7v42.84Zm7.626-36.55h6.112q4.358,0,6.415,1.21a4.391,4.391,0,0,1,2.058,4.12,5.07,5.07,0,0,1-2,4.29,9.492,9.492,0,0,1-5.81,1.52h-6.778v-11.14Zm0,17.67h7.141c3.106,0,5.426.45,6.96,1.33s2.3,2.46,2.3,4.72a5.553,5.553,0,0,1-.938,3.39,6.07,6.07,0,0,1-2.361,1.94,10.4,10.4,0,0,1-3.116.88,25.721,25.721,0,0,1-3.148.21h-6.838v-12.47Zm30.627,18.88h25.84v-6.77h-18.22V4989.7h-7.62v42.84Zm23.29,0h8.54l3.87-9.8h18.58l4,9.8h8.71l-18.46-42.84h-6.6Zm15.01-16.34,6.72-17.43,6.6,17.43h-13.32Zm30.93,16.34h32.74v-6.77h-23.78l23.42-29.17v-6.9h-32.02v6.65h22.94l-23.3,29.29v6.9Zm38.67,0h29.47v-6.77h-21.84v-12.11h19.67v-6.41h-19.67v-10.9h20.76v-6.65h-28.39v42.84Z" transform="translate(-732 -4954.94)"/>
</svg>
