<svg xmlns="http://www.w3.org/2000/svg" width="138.31" height="76.31" viewBox="0 0 138.31 76.31">
  <metadata><?xpacket begin="﻿" id="W5M0MpCehiHzreSzNTczkc9d"?>
<x:xmpmeta xmlns:x="adobe:ns:meta/" x:xmptk="Adobe XMP Core 5.6-c138 79.159824, 2016/09/14-01:09:01        ">
   <rdf:RDF xmlns:rdf="http://www.w3.org/1999/02/22-rdf-syntax-ns#">
      <rdf:Description rdf:about=""/>
   </rdf:RDF>
</x:xmpmeta>
                                                                                                    
                                                                                                    
                                                                                                    
                                                                                                    
                                                                                                    
                                                                                                    
                                                                                                    
                                                                                                    
                                                                                                    
                                                                                                    
                                                                                                    
                                                                                                    
                                                                                                    
                                                                                                    
                                                                                                    
                                                                                                    
                                                                                                    
                                                                                                    
                                                                                                    
                                                                                                    
                           
<?xpacket end="w"?></metadata>
<defs>
    <style>
      .cls-1 {
        fill: #fff;
        fill-rule: evenodd;
      }
    </style>
  </defs>
  <path id="Box" class="cls-1" d="M1426.31,4572.52a26.874,26.874,0,0,0-23.73,14.28,26.844,26.844,0,0,0-39.83-8.91v-22.63h-0.01a5.371,5.371,0,0,0-10.74,0h0v44.57h0.01a26.848,26.848,0,0,0,50.57,12.15A26.863,26.863,0,1,0,1426.31,4572.52Zm-47.45,42.98a16.115,16.115,0,1,1,16.11-16.11A16.107,16.107,0,0,1,1378.86,4615.5Zm47.45,0a16.115,16.115,0,1,1,16.11-16.11A16.107,16.107,0,0,1,1426.31,4615.5Zm62.99,2.3-13.75-18.39,13.75-18.39h0a5.375,5.375,0,0,0-8.59-6.46h0l-11.88,15.88-11.87-15.88h0a5.375,5.375,0,0,0-8.59,6.46h0l13.75,18.39-13.75,18.39h0a5.375,5.375,0,0,0,8.59,6.46h0l11.87-15.88,11.88,15.88h0a5.375,5.375,0,0,0,8.59-6.46h0Z" transform="translate(-1352 -4550)"/>
</svg>
