<svg xmlns="http://www.w3.org/2000/svg" width="424.66" height="60" viewBox="0 0 424.66 60">
  <defs>
    <style>
      .cls-1 {
        fill: #fff;
        fill-rule: evenodd;
      }
    </style>
  </defs>
  <path id="dreamhost.svg" class="cls-1" d="M622.9,5437.52a32.32,32.32,0,0,1-27.532-49.4,32.366,32.366,0,1,0,44.578,44.53A32.258,32.258,0,0,1,622.9,5437.52Zm-10.01-49.51a28.046,28.046,0,0,0-13.926,3.7,28.09,28.09,0,0,0,38.339,38.3A28.055,28.055,0,0,0,612.886,5388.01Zm44.726,54.74h17.57a34.376,34.376,0,0,0,9.73-1.44,26.631,26.631,0,0,0,8.82-4.44,23.039,23.039,0,0,0,6.37-7.7,23.914,23.914,0,0,0,2.45-11.2,25.3,25.3,0,0,0-2.45-11.73,21.842,21.842,0,0,0-6.37-7.63,25.314,25.314,0,0,0-8.82-4.16,38.948,38.948,0,0,0-9.73-1.26h-17.57v49.56Zm8.82-7.7v-34.3h7.35a33.992,33.992,0,0,1,6.86.7,16.709,16.709,0,0,1,6.195,2.59,14.081,14.081,0,0,1,4.515,5.25,18.761,18.761,0,0,1,1.75,8.68,17.659,17.659,0,0,1-1.75,8.33,14.512,14.512,0,0,1-4.515,5.21,17.647,17.647,0,0,1-6.195,2.73,29.764,29.764,0,0,1-6.86.81h-7.35Zm42.49,7.7h8.4v-17.99a11.582,11.582,0,0,1,.35-2.45,8.975,8.975,0,0,1,1.33-3.01,8.392,8.392,0,0,1,2.73-2.52,8.908,8.908,0,0,1,4.62-1.05,9.217,9.217,0,0,1,1.155.07,10.6,10.6,0,0,1,1.435.28v-7.7a3.866,3.866,0,0,0-.98-0.18q-0.561-.03-1.05-0.03a9.734,9.734,0,0,0-5.88,1.82,12.228,12.228,0,0,0-3.92,4.76h-0.14v-5.6h-8.05v33.6Zm28.91-20.16a8.308,8.308,0,0,1,2.9-5.85,9.469,9.469,0,0,1,6.405-2.27,8.748,8.748,0,0,1,3.535.66,6.891,6.891,0,0,1,3.92,4.38,10.336,10.336,0,0,1,.455,3.08h-17.22Zm24.395-4.17a15.981,15.981,0,0,0-3.395-5.67,14.13,14.13,0,0,0-5.145-3.43,17.742,17.742,0,0,0-6.475-1.15,18.922,18.922,0,0,0-7.035,1.29,16.443,16.443,0,0,0-9.38,9.31,19.3,19.3,0,0,0-1.365,7.39,18.928,18.928,0,0,0,1.365,7.38,15.7,15.7,0,0,0,3.78,5.5,16.943,16.943,0,0,0,5.705,3.46,20.433,20.433,0,0,0,7.21,1.23q9.45,0,14.42-6.72l-5.6-4.48a9.993,9.993,0,0,1-3.57,3.18,11.208,11.208,0,0,1-5.32,1.16,9.884,9.884,0,0,1-3.5-.63,10.47,10.47,0,0,1-3.01-1.72,8.32,8.32,0,0,1-3.08-5.91h25.55a9.277,9.277,0,0,0,.07-1.12v-1.12A23.44,23.44,0,0,0,762.227,5418.42Zm28.035,24.33h7.84v-20.44a19.7,19.7,0,0,0-.665-5.04,11.754,11.754,0,0,0-2.345-4.55,11.961,11.961,0,0,0-4.585-3.29,18.668,18.668,0,0,0-7.385-1.26,22.46,22.46,0,0,0-7.595,1.33,18.752,18.752,0,0,0-6.615,3.99l4.34,5.11a13.494,13.494,0,0,1,4.06-2.73,12.1,12.1,0,0,1,5.11-1.12,9.631,9.631,0,0,1,5.425,1.5,5.207,5.207,0,0,1,2.275,4.66v0.84q-3.921,0-8.015.38a30.812,30.812,0,0,0-7.455,1.58,13.691,13.691,0,0,0-5.5,3.43,8.355,8.355,0,0,0-2.135,6.02,9.249,9.249,0,0,0,1.225,4.93,10.1,10.1,0,0,0,3.08,3.22,12.526,12.526,0,0,0,4.06,1.75,18.289,18.289,0,0,0,4.235.53,13.729,13.729,0,0,0,6.37-1.44,9.349,9.349,0,0,0,4.06-3.67h0.21v4.27Zm-0.14-14.14a8.667,8.667,0,0,1-2.24,6.3q-2.241,2.31-6.58,2.31a10.684,10.684,0,0,1-2.1-.21,6.265,6.265,0,0,1-1.89-.7,4.045,4.045,0,0,1-1.365-1.3,3.553,3.553,0,0,1-.525-1.99,3.74,3.74,0,0,1,1.26-2.98,8.922,8.922,0,0,1,3.15-1.68,19.12,19.12,0,0,1,4.13-.77c1.493-.11,2.916-0.17,4.27-0.17h1.89v1.19Zm49.559-18.8a11.986,11.986,0,0,0-4.48,4.73,11.537,11.537,0,0,0-3.99-4.62,11.354,11.354,0,0,0-6.51-1.75,12.4,12.4,0,0,0-3.71.52,10.582,10.582,0,0,0-2.975,1.44,11.4,11.4,0,0,0-2.24,2.03,9.814,9.814,0,0,0-1.5,2.38h-0.14v-5.39h-7.98v33.6h8.4v-18.48a12.446,12.446,0,0,1,.455-3.33,9.5,9.5,0,0,1,1.33-2.9,6.968,6.968,0,0,1,2.275-2.07,6.552,6.552,0,0,1,3.29-.8,5.469,5.469,0,0,1,4.725,2.06,8.649,8.649,0,0,1,1.5,5.22v20.3h8.4v-18.34a13.138,13.138,0,0,1,.42-3.26,9.257,9.257,0,0,1,1.33-2.97,7.286,7.286,0,0,1,2.31-2.17,6.411,6.411,0,0,1,3.36-.84,5.66,5.66,0,0,1,3.255.84,6.058,6.058,0,0,1,1.925,2.13,8.354,8.354,0,0,1,.91,2.91,23.8,23.8,0,0,1,.21,3.08v18.62h8.4v-21a18.246,18.246,0,0,0-.7-5.04,12.272,12.272,0,0,0-2.205-4.34,11.131,11.131,0,0,0-3.85-3.05,12.646,12.646,0,0,0-5.635-1.15A12.815,12.815,0,0,0,839.681,5409.81Zm27.44,32.94h8.82v-21.98h23.17v21.98h8.82v-49.56h-8.82v20.02h-23.17v-20.02h-8.82v49.56Zm49.035-9.66a17.2,17.2,0,0,0,3.885,5.63,17.7,17.7,0,0,0,5.81,3.68,19.83,19.83,0,0,0,14.28,0,17.707,17.707,0,0,0,5.81-3.68,17.228,17.228,0,0,0,3.885-5.63,18.051,18.051,0,0,0,1.435-7.28,17.8,17.8,0,0,0-1.435-7.25,16.929,16.929,0,0,0-3.885-5.56,17.132,17.132,0,0,0-5.81-3.57,20.86,20.86,0,0,0-14.28,0,17.122,17.122,0,0,0-5.81,3.57,16.9,16.9,0,0,0-3.885,5.56,17.788,17.788,0,0,0-1.435,7.25A18.035,18.035,0,0,0,916.156,5433.09Zm7.7-11.17a10.772,10.772,0,0,1,1.785-3.46,8.929,8.929,0,0,1,3.01-2.49,10.489,10.489,0,0,1,8.68,0,8.949,8.949,0,0,1,3.01,2.49,10.812,10.812,0,0,1,1.785,3.46,13.159,13.159,0,0,1,.6,3.89,13.507,13.507,0,0,1-.6,3.92,10.91,10.91,0,0,1-1.785,3.5,9.525,9.525,0,0,1-3.01,2.52,10.1,10.1,0,0,1-8.68,0,9.5,9.5,0,0,1-3.01-2.52,10.87,10.87,0,0,1-1.785-3.5,13.473,13.473,0,0,1-.6-3.92A13.127,13.127,0,0,1,923.856,5421.92Zm57.644-8.64a11.976,11.976,0,0,0-5.5-3.85,20.642,20.642,0,0,0-7.105-1.26,19.063,19.063,0,0,0-4.9.63,13.742,13.742,0,0,0-4.27,1.92,9.933,9.933,0,0,0-3.045,3.33,9.592,9.592,0,0,0-1.155,4.83,8.6,8.6,0,0,0,.84,3.99,8.083,8.083,0,0,0,2.24,2.69,11.716,11.716,0,0,0,3.185,1.75,26.815,26.815,0,0,0,3.675,1.09,30.32,30.32,0,0,1,5.775,1.82,3.1,3.1,0,0,1,1.925,3.01,3.488,3.488,0,0,1-.49,1.89,3.618,3.618,0,0,1-1.295,1.22,6.131,6.131,0,0,1-1.75.67,8.54,8.54,0,0,1-1.855.21,10.464,10.464,0,0,1-4.97-1.19,11.16,11.16,0,0,1-3.64-3.01l-5.53,5.18a16.076,16.076,0,0,0,6.16,4.09,20.911,20.911,0,0,0,7.63,1.44,23.046,23.046,0,0,0,5.285-.6,12.972,12.972,0,0,0,4.48-1.92,9.807,9.807,0,0,0,3.08-3.47,10.814,10.814,0,0,0,1.155-5.21,8.294,8.294,0,0,0-.98-4.17,9.185,9.185,0,0,0-2.555-2.87,13.712,13.712,0,0,0-3.5-1.85,30.045,30.045,0,0,0-3.815-1.12,33.5,33.5,0,0,1-5.425-1.65,2.8,2.8,0,0,1-1.855-2.76,2.892,2.892,0,0,1,1.68-2.8,8.176,8.176,0,0,1,3.71-.84,8.7,8.7,0,0,1,4.27,1.08,9.807,9.807,0,0,1,3.08,2.56Zm6.509,2.59v15.68a21.885,21.885,0,0,0,.455,4.58,9.5,9.5,0,0,0,1.68,3.78,8.245,8.245,0,0,0,3.325,2.59,13.408,13.408,0,0,0,5.46.95,18.034,18.034,0,0,0,2.941-.25,13.774,13.774,0,0,0,2.66-.66l-0.28-6.58a7.325,7.325,0,0,1-1.75.52,10.174,10.174,0,0,1-1.82.18q-2.8,0-3.606-1.47a7.666,7.666,0,0,1-.8-3.71v-15.61h8.4v-6.72h-8.4v-9.73h-8.26v9.73h-5.88v6.72h5.88Z" transform="translate(-580 -5388)"/>
</svg>
