<?xml version="1.0" encoding="utf-8"?>
<!-- Generator: Adobe Illustrator 21.1.0, SVG Export Plug-In . SVG Version: 6.00 Build 0)  -->
<svg version="1.1" id="Layer_1" xmlns="http://www.w3.org/2000/svg" xmlns:xlink="http://www.w3.org/1999/xlink" x="0px" y="0px"
	 viewBox="0 0 381 86" style="enable-background:new 0 0 381 86;" xml:space="preserve">
<style type="text/css">
	.st0{fill:#FFFFFF;}
</style>
<path class="st0" d="M44.2,21.1L22.1,35.2l22.1,14.1L22.1,63.4L0,49.2l22.1-14.1L0,21.1L22.1,7L44.2,21.1z M22,67.9l22.1-14.1
	l22.1,14.1L44.1,82L22,67.9z M44.2,49.2l22.1-14.1l-22.1-14L66.2,7l22.1,14.1L66.2,35.2l22.1,14.1L66.2,63.4L44.2,49.2z"/>
<path class="st0" d="M105.6,21.1h17.9c11.4,0,20.8,6.6,20.8,21.6v3.2c0,15.2-8.8,22-20.5,22h-18.2V21.1z M115.6,29.6v29.8h7.6
	c6.5,0,10.8-4.2,10.8-13.6v-2.5c0-9.4-4.6-13.6-11.2-13.6H115.6z M149.6,30h8l1.3,8.8c1.5-6,5.4-9.2,12.5-9.2h2.5v10.1h-4.1
	c-8.1,0-10.1,2.8-10.1,10.8V68h-9.9V30H149.6z M175.8,49.8v-1.1c0-12.7,8.1-19.6,19.2-19.6c11.3,0,19.2,6.9,19.2,19.6v1.1
	c0,12.5-7.6,19.2-19.2,19.2C182.7,68.9,175.8,62.3,175.8,49.8z M204,49.7v-0.9c0-7.1-3.5-11.3-9.2-11.3c-5.5,0-9.2,3.9-9.2,11.3v0.9
	c0,6.8,3.5,10.7,9.2,10.7C200.5,60.3,204,56.5,204,49.7z M219.3,30h8.2l0.9,7.2c2-4.8,6.2-8.1,12.5-8.1c9.6,0,16,6.9,16,19.8v1.1
	c0,12.5-7.1,19.1-16,19.1c-6,0-10.1-2.7-12.1-7.1v19.2h-9.6L219.3,30L219.3,30z M246.9,49.7v-0.8c0-7.5-3.9-11.3-9.1-11.3
	c-5.5,0-9.2,4.2-9.2,11.3v0.7c0,6.7,3.5,10.9,9.1,10.9C243.4,60.4,246.9,56.7,246.9,49.7z M271.5,61l-0.8,6.9h-8.5V17.3h9.6v19.4
	c2.1-4.9,6.3-7.6,12.3-7.6c9.1,0.1,15.8,6.3,15.8,18.9v1.2c0,12.6-6.4,19.8-16,19.8C277.6,68.9,273.5,65.9,271.5,61z M289.9,49.2
	v-0.9c0-6.9-3.8-10.8-9.1-10.8c-5.4,0-9.2,4.4-9.2,10.9v0.8c0,7.1,3.6,11.2,9.1,11.2C286.5,60.4,289.9,56.7,289.9,49.2z M304.2,49.8
	v-1.1c0-12.7,8.1-19.6,19.2-19.6c11.3,0,19.2,6.9,19.2,19.6v1.1c0,12.5-7.8,19.2-19.2,19.2C311.1,68.9,304.2,62.3,304.2,49.8z
	 M332.6,49.7v-0.9c0-7.1-3.5-11.3-9.2-11.3c-5.5,0-9.2,3.9-9.2,11.3v0.9c0,6.8,3.5,10.7,9.2,10.7C329,60.3,332.6,56.5,332.6,49.7z
	 M355.5,48.3L342.2,30h11.4l7.6,11.4L369,30h11.3l-13.5,18.1L381,67.9h-11.2l-8.7-12.6l-8.5,12.6H341L355.5,48.3z"/>
</svg>
