<svg xmlns="http://www.w3.org/2000/svg" width="509.28" height="86.03" viewBox="0 0 509.28 86.03">
  <defs>
    <style>
      .cls-1 {
        fill: #fff;
        fill-rule: evenodd;
      }
    </style>
  </defs>
  <path id="googledrive.svg" class="cls-1" d="M1808,5175l-16-27-31,55,15,26Zm50,28-14.56,26H1780l15-26h63Zm-64.06-58H1826l32,55h-31ZM1914,5196.7h15.15a17.638,17.638,0,0,1-1.52,4.14,10.923,10.923,0,0,1-2.32,3.06,15.132,15.132,0,0,1-4.55,2.86,18.507,18.507,0,0,1-12.82-.07,15.84,15.84,0,0,1-5.22-3.33,15.339,15.339,0,0,1-3.57-5.22,18.486,18.486,0,0,1,0-13.67,15.552,15.552,0,0,1,8.72-8.55,16.868,16.868,0,0,1,6.26-1.18,15.568,15.568,0,0,1,12.19,5.12l6.26-6.13a23.531,23.531,0,0,0-7.91-5.59,27.512,27.512,0,0,0-20.37-.13,24.737,24.737,0,0,0-8.08,5.25,25.194,25.194,0,0,0-5.45,7.98,26.11,26.11,0,0,0,0,20.14,25.038,25.038,0,0,0,5.45,7.97,24.6,24.6,0,0,0,8.08,5.26,26.224,26.224,0,0,0,9.9,1.88,26.645,26.645,0,0,0,10.3-1.88,22.257,22.257,0,0,0,7.74-5.32,20.29,20.29,0,0,0,4.45-7.34,26.811,26.811,0,0,0,1.41-8.76,19.657,19.657,0,0,0-.13-2.29,14.927,14.927,0,0,0-.34-1.95H1914v7.75Zm38.14-14.04a16.241,16.241,0,0,0-9.15,9.19,19.594,19.594,0,0,0,0,14.14,16.5,16.5,0,0,0,3.63,5.55,16.748,16.748,0,0,0,5.52,3.64,19.572,19.572,0,0,0,14.08,0,16.748,16.748,0,0,0,5.52-3.64,16.5,16.5,0,0,0,3.63-5.55,19.594,19.594,0,0,0,0-14.14,16.241,16.241,0,0,0-9.15-9.19A19.433,19.433,0,0,0,1952.14,5182.66Zm3.74,25.04a8.326,8.326,0,0,1-2.76-1.85,8.613,8.613,0,0,1-1.92-2.96,11.482,11.482,0,0,1,0-7.95,8.807,8.807,0,0,1,1.92-2.96,8.433,8.433,0,0,1,6.06-2.49,8.618,8.618,0,0,1,3.27.64,8.4,8.4,0,0,1,2.79,1.85,8.807,8.807,0,0,1,1.92,2.96,11.482,11.482,0,0,1,0,7.95,8.613,8.613,0,0,1-1.92,2.96,8.248,8.248,0,0,1-2.79,1.85,8.618,8.618,0,0,1-3.27.64A8.476,8.476,0,0,1,1955.88,5207.7Zm34.38-25.04a16.219,16.219,0,0,0-9.16,9.19,19.594,19.594,0,0,0,0,14.14,16.5,16.5,0,0,0,3.63,5.55,16.689,16.689,0,0,0,5.53,3.64,19.545,19.545,0,0,0,14.07,0,16.376,16.376,0,0,0,9.16-9.19,19.733,19.733,0,0,0,0-14.14,16.3,16.3,0,0,0-9.16-9.19A19.407,19.407,0,0,0,1990.26,5182.66Zm3.73,25.04a8.326,8.326,0,0,1-2.76-1.85,8.613,8.613,0,0,1-1.92-2.96,11.636,11.636,0,0,1,0-7.95,8.807,8.807,0,0,1,1.92-2.96,8.433,8.433,0,0,1,6.06-2.49,8.618,8.618,0,0,1,3.27.64,8.4,8.4,0,0,1,2.79,1.85,8.807,8.807,0,0,1,1.92,2.96,11.482,11.482,0,0,1,0,7.95,8.613,8.613,0,0,1-1.92,2.96,8.248,8.248,0,0,1-2.79,1.85,8.618,8.618,0,0,1-3.27.64A8.476,8.476,0,0,1,1993.99,5207.7Zm48.11,22.09a15.355,15.355,0,0,0,5.49-3.57,16.129,16.129,0,0,0,3.57-5.65,20.938,20.938,0,0,0,1.28-7.51v-30.64h-8.42v3.57h-0.54a10.758,10.758,0,0,0-4.07-3.4,13.325,13.325,0,0,0-5.96-1.25,14.509,14.509,0,0,0-5.76,1.2,15.172,15.172,0,0,0-4.95,3.44,17.684,17.684,0,0,0-4.84,12.43,17.512,17.512,0,0,0,1.34,7,17.883,17.883,0,0,0,3.5,5.37,15.172,15.172,0,0,0,4.95,3.44,14.509,14.509,0,0,0,5.76,1.2,13.325,13.325,0,0,0,5.96-1.25,10.758,10.758,0,0,0,4.07-3.4h0.54v2.29a10.835,10.835,0,0,1-2.42,7.46,9.058,9.058,0,0,1-11.38,1.26,8,8,0,0,1-3.1-4.08l-8.42,3.37a12.6,12.6,0,0,0,1.96,3.5,15.593,15.593,0,0,0,3.36,3.2,17.718,17.718,0,0,0,4.75,2.36,19.875,19.875,0,0,0,6.23.91A19.42,19.42,0,0,0,2042.1,5229.79Zm-9.93-22.92a8.2,8.2,0,0,1-2.76-1.75,8.646,8.646,0,0,1-1.95-2.84,10.49,10.49,0,0,1,0-7.74,9,9,0,0,1,1.95-2.87,8.155,8.155,0,0,1,2.76-1.79,8.9,8.9,0,0,1,3.17-.59,9.133,9.133,0,0,1,3.19.59,8.1,8.1,0,0,1,2.8,1.76,8.574,8.574,0,0,1,1.95,2.87,9.689,9.689,0,0,1,.74,3.9,9.41,9.41,0,0,1-.74,3.87,8.646,8.646,0,0,1-1.95,2.84,8.077,8.077,0,0,1-2.8,1.75,8.924,8.924,0,0,1-3.19.6A8.7,8.7,0,0,1,2032.17,5206.87Zm35.96,8.55V5167.2h-8.82v48.22h8.82Zm30.44-11.59a10.039,10.039,0,0,1-3.14,3.47,8.56,8.56,0,0,1-5.01,1.38,10.285,10.285,0,0,1-3.03-.44,8.075,8.075,0,0,1-2.73-1.41,8.449,8.449,0,0,1-2.09-2.42,9.388,9.388,0,0,1-1.11-3.47h24.85a3.383,3.383,0,0,1,.07-0.74,5.012,5.012,0,0,1,.06-0.74v-0.81a21.415,21.415,0,0,0-1.07-6.87,15.729,15.729,0,0,0-3.17-5.49,14.339,14.339,0,0,0-5.18-3.63,17.934,17.934,0,0,0-7.07-1.32,16.49,16.49,0,0,0-6.91,1.42,17.382,17.382,0,0,0-5.42,3.8,17.582,17.582,0,0,0-3.57,5.59,19.1,19.1,0,0,0,.04,13.8,16.637,16.637,0,0,0,3.67,5.56,16.85,16.85,0,0,0,5.55,3.67,18.285,18.285,0,0,0,6.97,1.31,17.116,17.116,0,0,0,9.46-2.49,18.454,18.454,0,0,0,6.16-6.53Zm-16.64-9.15a8.64,8.64,0,0,1,3.03-4.52,8.139,8.139,0,0,1,4.99-1.61,9,9,0,0,1,3.46.6,7.8,7.8,0,0,1,2.43,1.55,6.942,6.942,0,0,1,1.48,2.02,5.532,5.532,0,0,1,.57,1.96h-15.96Zm59.46,20.74q11.04,0,17.74-6.64t6.7-17.47q0-10.77-6.7-17.44t-17.74-6.67h-14.75v48.22h14.75Zm0-42.29q8.415,0,13.27,4.85t4.84,13.33q0,8.55-4.84,13.36-4.86,4.815-13.27,4.82h-8.55v-36.36h8.55Zm34.88,24.1a9.425,9.425,0,0,1,2.59-6.59,8.011,8.011,0,0,1,6.1-2.83,10.088,10.088,0,0,1,3.63.47l1.89-5.99a11.584,11.584,0,0,0-4.58-.81,10.711,10.711,0,0,0-5.76,1.85,8.948,8.948,0,0,0-3.87,4.48H2176v-5.39h-5.92v33h6.19v-18.19Zm24.31-29.29a4.394,4.394,0,1,0,1.28,3.1A4.235,4.235,0,0,0,2200.58,5167.94Zm-6.2,14.48v33h6.2v-33h-6.2Zm43.1,0h-6.6l-9.83,25.59h-0.14l-9.69-25.59h-6.74l13.34,33h6.19Zm26.09,31.72a16.454,16.454,0,0,0,6.16-6.54l-5.52-2.69q-3.36,5.925-9.29,5.93a10.331,10.331,0,0,1-7.41-2.97,10.762,10.762,0,0,1-3.23-7.81h25.92l0.07-.67q0-8.55-4.34-13.3t-11.69-4.75a15.167,15.167,0,0,0-11.71,5.02,17.883,17.883,0,0,0-4.58,12.56,17.6,17.6,0,0,0,4.71,12.59,15.79,15.79,0,0,0,11.99,4.98A17.053,17.053,0,0,0,2263.57,5214.14Zm-15.49-24.99a9.038,9.038,0,0,1,6.03-2.15,9.813,9.813,0,0,1,6.77,2.25,8.257,8.257,0,0,1,2.79,5.69h-18.92A10.337,10.337,0,0,1,2248.08,5189.15Z" transform="translate(-1761 -5145)"/>
</svg>
