<svg xmlns="http://www.w3.org/2000/svg" width="420" height="71" viewBox="0 0 420 71">
  <metadata><?xpacket begin="﻿" id="W5M0MpCehiHzreSzNTczkc9d"?>
<x:xmpmeta xmlns:x="adobe:ns:meta/" x:xmptk="Adobe XMP Core 5.6-c138 79.159824, 2016/09/14-01:09:01        ">
   <rdf:RDF xmlns:rdf="http://www.w3.org/1999/02/22-rdf-syntax-ns#">
      <rdf:Description rdf:about=""/>
   </rdf:RDF>
</x:xmpmeta>
                                                                                                    
                                                                                                    
                                                                                                    
                                                                                                    
                                                                                                    
                                                                                                    
                                                                                                    
                                                                                                    
                                                                                                    
                                                                                                    
                                                                                                    
                                                                                                    
                                                                                                    
                                                                                                    
                                                                                                    
                                                                                                    
                                                                                                    
                                                                                                    
                                                                                                    
                                                                                                    
                           
<?xpacket end="w"?></metadata>
<defs>
    <style>
      .cls-1 {
        fill: #fff;
        fill-rule: evenodd;
      }
    </style>
  </defs>
  <path id="OneDrive" class="cls-1" d="M1222.6,4876.59c-7.2-1.82-11.22-7.59-11.23-16.16a13.969,13.969,0,0,1,.87-5.82c1.66-4.31,6.06-7.57,11.86-8.77,2.88-.6,3.76-1.24,3.76-2.72a14.369,14.369,0,0,1,.77-3.08c1.9-5.59,5.43-10.24,9.2-12.14,3.94-1.99,5.93-2.44,10.7-2.42,6.77,0.04,10.15,1.52,14.88,6.53l2.6,2.75,2.33-.81c11.27-3.94,22.51,2.76,23.42,13.95l0.25,3.06,2.21,0.8c6.34,2.29,9.32,7.1,8.78,14.17-0.35,4.63-2.49,8.32-5.89,10.15l-1.6.86-35.48.07c-27.26.05-35.93-.04-37.43-0.42h0Zm-26.6-4.94c-4.2-1.01-8.66-4.76-10.75-9.04-1.19-2.43-1.25-2.79-1.25-7.09,0-4.09.1-4.74,1.04-6.78a15.725,15.725,0,0,1,10.59-8.58,5.161,5.161,0,0,0,2.11-.91,11.86,11.86,0,0,0,.37-2.95c0.33-8.57,5.9-16.11,13.68-18.53a21.748,21.748,0,0,1,14.06.85c1.45,0.59,1.29.71,4.35-3.34a28.163,28.163,0,0,1,8.48-6.9,22.5,22.5,0,0,1,10.63-2.38,25.722,25.722,0,0,1,24.53,17.95c1.15,3.46,1.09,4.43-.26,4.46a22.988,22.988,0,0,0-3.75.73l-2.69.7-2.44-2.47c-6.91-6.96-18.17-8.46-27.75-3.7a23.079,23.079,0,0,0-9.22,8.19c-1.65,2.53-3.76,7.26-3.76,8.44,0,0.83-.67,1.25-3.53,2.19-8.85,2.93-14.01,9.69-14.01,18.33a23.159,23.159,0,0,0,1.92,9.2,3.028,3.028,0,0,1,.52,1.76c-0.34.35-11.35,0.23-12.87-.13h0Zm146.76-2.07q-10.44,0-16.74-6.94-6.285-6.96-6.28-18.08,0-11.955,6.4-19.07,6.42-7.125,17.45-7.12,10.17,0,16.39,6.91t6.22,18.07q0,12.135-6.37,19.18T1342.76,4869.58Zm0.42-45.96a15.773,15.773,0,0,0-12.58,5.64q-4.83,5.625-4.83,14.78t4.71,14.74a15.314,15.314,0,0,0,12.28,5.58q8.1,0,12.75-5.32t4.66-14.89q0-9.81-4.52-15.17T1343.18,4823.62Zm61.06,45.13h-5.62v-20.18q0-11.265-8.15-11.26a8.827,8.827,0,0,0-6.98,3.19,11.9,11.9,0,0,0-2.76,8.07v20.18h-5.62v-35.38h5.62v5.87h0.14a12.646,12.646,0,0,1,11.52-6.7q5.745,0,8.8,3.75t3.05,10.83v21.63Zm38.83-16.27h-24.78q0.15,5.91,3.16,9.12a10.817,10.817,0,0,0,8.29,3.21,17.159,17.159,0,0,0,10.9-3.94v5.32c-3.09,2.26-7.16,3.39-12.24,3.39q-7.425,0-11.68-4.82t-4.25-13.56q0-8.265,4.64-13.46a14.831,14.831,0,0,1,11.53-5.2q6.9,0,10.66,4.49t3.77,12.47v2.98Zm-5.76-4.81q-0.03-4.905-2.34-7.63a7.989,7.989,0,0,0-6.43-2.73,9.039,9.039,0,0,0-6.75,2.86,13.156,13.156,0,0,0-3.43,7.5h18.95Zm15.05,21.08V4819.2h13.57q25.98,0,25.97,24.15,0,11.475-7.21,18.44t-19.31,6.96h-13.02Zm5.75-44.3v39.05h7.34q9.66,0,15.04-5.22t5.38-14.79q0-19.035-20.08-19.04h-7.68Zm61,14.65a6.8,6.8,0,0,0-4.24-1.14,7.166,7.166,0,0,0-6.02,3.42q-2.415,3.42-2.42,9.33v18.04h-5.62v-35.38h5.62v7.29h0.14a12.3,12.3,0,0,1,3.67-5.82,8.274,8.274,0,0,1,5.52-2.09,9.1,9.1,0,0,1,3.35.48v5.87Zm8.98-14.72a3.555,3.555,0,0,1-2.57-1.03,3.512,3.512,0,0,1-1.06-2.63,3.55,3.55,0,0,1,1.06-2.64,3.5,3.5,0,0,1,2.57-1.06,3.567,3.567,0,0,1,2.62,1.06A3.685,3.685,0,0,1,1528.09,4824.38Zm2.74,44.37h-5.62v-35.38h5.62v35.38Zm38.97-35.38-13.98,35.38h-5.52l-13.3-35.38h6.17l8.91,25.71a23.239,23.239,0,0,1,1.24,4.94h0.13a23.8,23.8,0,0,1,1.1-4.81l9.32-25.84h5.93Zm34.2,19.11h-24.78q0.135,5.91,3.16,9.12a10.817,10.817,0,0,0,8.29,3.21,17.159,17.159,0,0,0,10.9-3.94v5.32q-4.635,3.39-12.24,3.39-7.425,0-11.68-4.82t-4.25-13.56q0-8.265,4.64-13.46a14.831,14.831,0,0,1,11.53-5.2q6.885,0,10.66,4.49t3.77,12.47v2.98Zm-5.76-4.81q-0.03-4.905-2.34-7.63a7.989,7.989,0,0,0-6.43-2.73,9.039,9.039,0,0,0-6.75,2.86,13.156,13.156,0,0,0-3.43,7.5h18.95Z" transform="translate(-1184 -4806)"/>
</svg>
