<svg xmlns="http://www.w3.org/2000/svg" width="437" height="99" viewBox="0 0 437 99">
  <metadata><?xpacket begin="﻿" id="W5M0MpCehiHzreSzNTczkc9d"?>
<x:xmpmeta xmlns:x="adobe:ns:meta/" x:xmptk="Adobe XMP Core 5.6-c138 79.159824, 2016/09/14-01:09:01        ">
   <rdf:RDF xmlns:rdf="http://www.w3.org/1999/02/22-rdf-syntax-ns#">
      <rdf:Description rdf:about=""/>
   </rdf:RDF>
</x:xmpmeta>
                                                                                                    
                                                                                                    
                                                                                                    
                                                                                                    
                                                                                                    
                                                                                                    
                                                                                                    
                                                                                                    
                                                                                                    
                                                                                                    
                                                                                                    
                                                                                                    
                                                                                                    
                                                                                                    
                                                                                                    
                                                                                                    
                                                                                                    
                                                                                                    
                                                                                                    
                                                                                                    
                           
<?xpacket end="w"?></metadata>
<defs>
    <style>
      .cls-1 {
        fill: #fff;
        fill-rule: evenodd;
      }
    </style>
  </defs>
  <path id="Rackspace" class="cls-1" d="M1225.17,4685.68c-1.78,3.8-1.07,6.93,1.58,6.97s6.26-2.99,8.03-6.79,1.07-6.93-1.58-6.98-6.25,3-8.03,6.8m21.63-13.73a0.055,0.055,0,0,1,.04.06v0.02a65.735,65.735,0,0,1-6.83,13.68c-5.5,8.27-13.39,13.49-17.62,11.65s-3.21-10.04,2.29-18.31a39.741,39.741,0,0,1,4-5.07,0.076,0.076,0,0,0,.02-0.04,0.058,0.058,0,0,0-.06-0.06h-0.01a48.2,48.2,0,0,0-5.25,1.04,0.053,0.053,0,0,0-.03.02c-18.57,23.08-26.48,53.06-25.39,79.8a0.058,0.058,0,0,1-.06.06h-0.03c-10.94-4.47-18.94-15.19-19.77-28.76l-0.02-.16c-1.38-24.14,17.61-48.88,42.43-55.24C1230.13,4668.17,1239.21,4668.82,1246.8,4671.95Zm-7.02,65.12a55.114,55.114,0,0,1-5.63,3.5,0.02,0.02,0,0,1-.02.01,0.075,0.075,0,0,1-.07-0.06,46.314,46.314,0,0,0-3.72-16.09c-5.68-12.47-15.61-13.43-22.17-2.14-4.02,6.91-5.84,16.82-5.35,26.32a0.068,0.068,0,0,0,.04.06,42.549,42.549,0,0,0,23.54.26c24.77-6.39,43.73-31.1,42.35-55.22-1.21-21.19-17.7-34.88-38.49-33.61a0.048,0.048,0,0,0-.04.01c-2.02,2.08-3.91,4.17-5.69,6.28a0.076,0.076,0,0,0-.02.04,0.068,0.068,0,0,0,.07.07v-0.01c12.19-1.56,21.95.95,28.32,6.09a0.091,0.091,0,0,1,.03.05,0.227,0.227,0,0,1-.01.04c-21.96,31.37-19.24,49.24-13.11,64.33v0.02a0.055,0.055,0,0,1-.03.05m204.78-35.88c5.18,0,9.01,1.14,10.86,2.2a0.061,0.061,0,0,1,.03.07l-1.79,9.51a0.062,0.062,0,0,1-.03.04,0.064,0.064,0,0,1-.06,0,21.028,21.028,0,0,0-9.61-2.39c-3.27,0-5.4,1.38-5.4,3.71,0,1.66,1.63,3.16,5.08,4.86,4.49,2.27,9.56,5.64,9.56,11.73a13.5,13.5,0,0,1-3.88,9.88c-3.43,3.45-8.99,5.33-15.67,5.28-5.14-.09-10.34-1.44-12.94-3.35a0.071,0.071,0,0,1-.03-0.06l1.8-9.57a0.051,0.051,0,0,1,.04-0.05,0.048,0.048,0,0,1,.05.01,27.121,27.121,0,0,0,12.29,3.67c3.12,0,5.22-1.46,5.22-3.79,0-2.12-1.47-3.61-5.25-5.48-5.96-3.02-8.95-6.85-8.95-11.37,0-8.89,7.47-14.9,18.68-14.9m-137.49-.09a13.369,13.369,0,0,1,2.33.21,0.052,0.052,0,0,1,.04.02,0.048,0.048,0,0,1,.01.05l-2.42,12.38a0.054,0.054,0,0,1-.03.04,0.06,0.06,0,0,1-.04.01,9.29,9.29,0,0,0-1.97-.21c-8.55,0-11.89,8.48-13.19,15.49l-3.03,16.48a0.094,0.094,0,0,1-.07.05h-12.47a0.055,0.055,0,0,1-.05-0.03,0.075,0.075,0,0,1-.01-0.05l8.15-43.42a0.056,0.056,0,0,1,.06-0.05h10.97a0.048,0.048,0,0,1,.05.02,0.06,0.06,0,0,1,.01.04l-1.4,7.46a0.128,0.128,0,0,0,.07.15,0.122,0.122,0,0,0,.17-0.05c3.28-5.52,7.81-8.59,12.82-8.59m16.56,12.35c-3.39,3.43-5.93,9.87-5.92,15,0,4.51,1.64,7.31,4.51,7.31,4.58,0,8.53-4.85,9.89-11.97,0.31-1.59.62-3.21,0.84-4.64a20.431,20.431,0,0,0,.32-3.59c-0.15-3.05-1.71-4.68-4.51-4.68a7.409,7.409,0,0,0-5.13,2.57m4.67,31.73a0.127,0.127,0,0,1-.01-0.06l1.05-5.38a0.132,0.132,0,0,0-.1-0.16,0.127,0.127,0,0,0-.14.07,13.714,13.714,0,0,1-11.96,6.52c-8.37,0-12.15-7.54-12.16-15.08a32.747,32.747,0,0,1,8.88-22.68,23.845,23.845,0,0,1,17.39-7.22c5.11,0.02,8.89,1.52,11.26,4.43,3.51,4.31,3.22,10.78,2.34,15.48l-4.53,24.05a0.056,0.056,0,0,1-.06.05h-11.91A0.076,0.076,0,0,1,1328.3,4745.18Zm145.73-8.71c6.62,0,11.48-9.52,11.48-17.93,0-2.02-.47-6.95-5.09-6.95-4.69,0-8.65,5.42-10.19,13.63-0.52,2.81-2,11.25,3.8,11.25m10.84-35.28c8.33,0,13.74,6.4,13.74,16.39,0,10.47-4.96,21.21-13.9,26.04-8.14,4.4-15.42,2.47-17.71-.98,0-.01-0.01-0.01-0.01,0l-3.05,16.31a0.056,0.056,0,0,1-.06.05h-12.47a0.076,0.076,0,0,1-.05-0.02,0.109,0.109,0,0,1-.01-0.05l10.71-57.08a0.056,0.056,0,0,1,.06-0.05h10.97a0.068,0.068,0,0,1,.05.03,0.075,0.075,0,0,1,.01.05l-1.09,5.81a0.143,0.143,0,0,0,.06.17,0.152,0.152,0,0,0,.17-0.06l0.05-.07A15.859,15.859,0,0,1,1484.87,4701.19Zm-93.48-14.22h12.39a0.034,0.034,0,0,1,.04.02,0.055,0.055,0,0,1,.02.05l-6.46,34.45a0.037,0.037,0,0,0,.02.05,0.047,0.047,0,0,0,.06-0.01l16.63-19.44a0.076,0.076,0,0,1,.04-0.02h13.59a0.062,0.062,0,0,1,.06.04v0.02a0.048,0.048,0,0,1-.01.04l-17.26,19.71,10.53,23.15v0.02c0,0.02,0,.03-0.01.03a0.066,0.066,0,0,1-.05.04h-13.41a0.082,0.082,0,0,1-.06-0.04l-10.18-22.89a0.055,0.055,0,0,0-.05-0.03,0.078,0.078,0,0,0-.04.04l-4.28,22.87a0.094,0.094,0,0,1-.07.05h-12.38a0.055,0.055,0,0,1-.05-0.03,0.048,0.048,0,0,1-.02-0.05l10.89-58.02a0.056,0.056,0,0,1,.06-0.05m211.79,27.19c0-2.23-1.82-3.63-4.53-3.63-5.38,0-8.83,4.41-9.83,8.58l-0.04.15v0.01h0.16c7.29,0.05,11.41-.71,13.21-2.52a3.52,3.52,0,0,0,1.03-2.59m-2.97-12.97c8.87,0,14.79,5.22,14.79,12.97a11.806,11.806,0,0,1-3.42,8.76c-4.15,4.1-11.95,5.98-23.89,5.7l-0.13-.01h0v0.14a8.346,8.346,0,0,0,1.27,4.14c1.63,2.09,4.51,3.23,8.09,3.23a27.756,27.756,0,0,0,14.69-4.16,0.038,0.038,0,0,1,.06,0,0.071,0.071,0,0,1,.03.06l-1.99,10.58a0.055,0.055,0,0,1-.03.05c-6,3.09-13.04,3.43-15.79,3.43-11.72,0-18.42-6.61-18.42-18.14a28.712,28.712,0,0,1,6.61-18.29A23.374,23.374,0,0,1,1600.21,4701.19Zm-82.11,12.26c-3.38,3.43-5.92,9.87-5.92,15,0,4.51,1.65,7.31,4.51,7.31,4.59,0,8.54-4.85,9.89-11.97,0.31-1.59.62-3.21,0.84-4.64a20.431,20.431,0,0,0,.32-3.59c-0.15-3.05-1.71-4.68-4.51-4.68a7.409,7.409,0,0,0-5.13,2.57m4.67,31.73a0.127,0.127,0,0,1-.01-0.06l1.05-5.38a0.126,0.126,0,0,0-.1-0.16,0.134,0.134,0,0,0-.14.07,13.7,13.7,0,0,1-11.96,6.52c-8.37,0-12.15-7.54-12.16-15.08,0-8.56,3.32-17.04,8.88-22.68a23.877,23.877,0,0,1,17.39-7.22c5.11,0.02,8.89,1.52,11.26,4.43,3.51,4.31,3.22,10.78,2.35,15.48l-4.54,24.05a0.056,0.056,0,0,1-.06.05h-11.9A0.107,0.107,0,0,1,1522.77,4745.18Zm46.32-43.9a24.177,24.177,0,0,1,8.68,1.49,0.074,0.074,0,0,1,.04.08l-1.92,10.24a0.1,0.1,0,0,1-.04.05,0.127,0.127,0,0,1-.06-0.01,13.59,13.59,0,0,0-6.87-1.63c-8.97,0-14.32,7.92-14.32,15.56,0,6.48,4.27,8.8,8.25,8.8a21.929,21.929,0,0,0,10.43-2.71,0.062,0.062,0,0,1,.07.01,0.048,0.048,0,0,1,.02.06l-1.97,10.53a0.054,0.054,0,0,1-.03.04,29.264,29.264,0,0,1-12.07,2.29c-10.88,0-17.9-6.91-17.9-17.62,0-15.5,11.9-27.18,27.69-27.18m-194.47,0a24.177,24.177,0,0,1,8.68,1.49,0.074,0.074,0,0,1,.04.08l-1.93,10.24a0.055,0.055,0,0,1-.03.05,0.127,0.127,0,0,1-.06-0.01,13.6,13.6,0,0,0-6.88-1.63c-8.97,0-14.31,7.92-14.31,15.56,0,6.48,4.27,8.8,8.25,8.8a21.957,21.957,0,0,0,10.43-2.71,0.045,0.045,0,0,1,.06.01,0.071,0.071,0,0,1,.03.06l-1.97,10.53a0.1,0.1,0,0,1-.03.04,29.264,29.264,0,0,1-12.07,2.29c-10.89,0-17.9-6.91-17.9-17.62,0-15.5,11.9-27.18,27.69-27.18" transform="translate(-1178 -4660)"/>
</svg>
