<svg xmlns="http://www.w3.org/2000/svg" width="33.906" height="39.469" viewBox="0 0 33.906 39.469">
  <defs>
    <style>
      .cls-1 {
        fill: #d9f3fa;
        fill-rule: evenodd;
        opacity: 0.5;
      }
    </style>
  </defs>
  <path id="feature-s3.svg" class="cls-1" d="M972,936.459V920.766L984,916v13.975Zm-13.875-23.4L971,906.987l12.875,6.068L971,918.721ZM970,936.46l-12-6.485V916l12,4.766V936.46ZM971,897a1,1,0,0,1,1,1v4a1,1,0,0,1-2,0v-4A1,1,0,0,1,971,897Zm-8.929,2.147a1,1,0,0,1,1.26.642l1.239,3.8a1,1,0,1,1-1.9.619l-1.238-3.8A1,1,0,0,1,962.071,899.147Zm-8.417,5.983a1,1,0,0,1,1.4-.159l3.128,2.494a1,1,0,1,1-1.246,1.564l-3.128-2.494A1,1,0,0,1,953.654,905.13Zm25.2-5.921a0.983,0.983,0,0,0-1.239.631l-1.218,3.745a0.983,0.983,0,1,0,1.869.61l1.218-3.745A0.984,0.984,0,0,0,978.855,899.209Zm8.276,5.891a0.983,0.983,0,0,0-1.382-.157l-3.075,2.455a0.984,0.984,0,0,0,1.225,1.54l3.076-2.455A0.986,0.986,0,0,0,987.131,905.1Z" transform="translate(-953.438 -897)"/>
</svg>
