<svg xmlns="http://www.w3.org/2000/svg" width="36" height="40" viewBox="0 0 36 40">
  <defs>
    <style>
      .cls-1 {
        fill: #d9f3fa;
        fill-rule: evenodd;
        opacity: 0.5;
      }
    </style>
  </defs>
  <path id="feature-2fa.svg" class="cls-1" d="M197,847a12.99,12.99,0,0,1-9-22.367v-2.587a14.94,14.94,0,0,0,1.207,24.753A12.984,12.984,0,0,1,178,824.633V816a9,9,0,0,1,14-7.482A9,9,0,0,1,206,816v8.633A12.99,12.99,0,0,1,197,847Zm-15-31v6a12.941,12.941,0,0,1,5-1c0.338,0,.67.02,1,0.049V816a8.947,8.947,0,0,1,1.2-4.471A4.943,4.943,0,0,0,187,811,5,5,0,0,0,182,816Zm20,0a5,5,0,1,0-10,0v6a13,13,0,0,1,10,0v-6Zm-5,13a5,5,0,1,1-5,5A5,5,0,0,1,197,829Z" transform="translate(-174 -807)"/>
</svg>
