<svg xmlns="http://www.w3.org/2000/svg" width="30" height="40" viewBox="0 0 30 40">
  <defs>
    <style>
      .cls-1 {
        fill: #d9f3fa;
        fill-rule: evenodd;
        opacity: 0.5;
      }
    </style>
  </defs>
  <path id="feature-copy-file.svg" class="cls-1" d="M975,1013v-12l11,12H975Zm-2,1h0v0.5a0.5,0.5,0,0,0,.5.5H986v25s-0.008,1.53-1.028.5c-1.408-1.42-2.99-3.02-2.99-3.02a1.354,1.354,0,0,0-1.934-.06c-1.444,1.46-3.051,3.08-3.051,3.08a1.392,1.392,0,0,1-2.03-.04c-1.46-1.47-2.955-2.98-2.955-2.98a1.451,1.451,0,0,0-2.141.15c-1.471,1.48-2.843,2.87-2.843,2.87a1.239,1.239,0,0,1-1.994,0c0,0.01-2.49-2.51-3-3.03a1.525,1.525,0,0,0-1.983.01l-2.991,3.02c-1.023,1.03-1.059-.5-1.059-0.5v-37a1.964,1.964,0,0,1,2.056-2H973v13h0Z" transform="translate(-956 -1001)"/>
</svg>
