<svg xmlns="http://www.w3.org/2000/svg" width="36" height="33" viewBox="0 0 36 33">
  <defs>
    <style>
      .cls-1 {
        fill: #d9f3fa;
        fill-rule: evenodd;
        opacity: 0.5;
      }
    </style>
  </defs>
  <path id="feature-ui.svg" class="cls-1" d="M176,550h32a2,2,0,0,1,2,2v29a2,2,0,0,1-2,2H176a2,2,0,0,1-2-2V552A2,2,0,0,1,176,550Zm8,5a2,2,0,0,1,2,2v6a2,2,0,0,1-4,0v-6A2,2,0,0,1,184,555Zm16,0a2,2,0,0,1,2,2v6a2,2,0,0,1-4,0v-6A2,2,0,0,1,200,555Zm-8.124,22.747a0.076,0.076,0,0,0,0-.014s0,0.014,0,.014c-5.031,0-6.975-1.76-9.523-4.906l1.427-1.258a9.719,9.719,0,0,0,8.1,4s0,0.04,0,.1c0-.059,0-0.1,0-0.1a10.44,10.44,0,0,0,8.5-4l1.5,1.258C199.2,575.987,197.156,577.747,191.876,577.747Z" transform="translate(-174 -550)"/>
</svg>
