<svg xmlns="http://www.w3.org/2000/svg" width="40" height="30" viewBox="0 0 40 30">
  <defs>
    <style>
      .cls-1 {
        fill: #d9f3fa;
        fill-rule: evenodd;
        opacity: 0.5;
      }
    </style>
  </defs>
  <path id="feature-terminal.svg" class="cls-1" d="M184,914h24a4,4,0,0,1,4,4v22a4,4,0,0,1-4,4H184a4,4,0,0,1-4-4V918A4,4,0,0,1,184,914Zm13.923,14.406-7.071,7.02a2.008,2.008,0,0,1-2.829,0,1.982,1.982,0,0,1,0-2.813l3.649-3.622L180,929v-4l11.672,0.009-3.649-3.623a1.98,1.98,0,0,1,0-2.812,2.008,2.008,0,0,1,2.829,0l7.071,7.02A1.98,1.98,0,0,1,197.923,928.406ZM172,925h8v4h-8v-4Z" transform="translate(-172 -914)"/>
</svg>
