<svg xmlns="http://www.w3.org/2000/svg" width="38.656" height="38.906" viewBox="0 0 38.656 38.906">
  <defs>
    <style>
      .cls-1 {
        fill: #d9f3fa;
        fill-rule: evenodd;
        opacity: 0.5;
      }
    </style>
  </defs>
  <path id="feature-sync-local.svg" class="cls-1" d="M187.052,766.6h0a0.605,0.605,0,0,1-.279-0.657c1.3-6.625-.194-9.231-0.21-9.256a0.579,0.579,0,0,1-.032-0.507,0.56,0.56,0,0,1,.376-0.327,5.428,5.428,0,0,1,3.5.285,4.383,4.383,0,0,1,1.176.741,0.532,0.532,0,0,1,.093.118c1.324,2.285-3.058,8.224-3.944,9.379A0.6,0.6,0,0,1,187.052,766.6Zm-1.387-1.386,0,0a0.6,0.6,0,0,1-.686-0.2c-4.324-5.18-7.292-5.654-7.322-5.658a0.572,0.572,0,0,1-.413-0.293,0.557,0.557,0,0,1-.018-0.5,5.45,5.45,0,0,1,2.424-2.541,4.373,4.373,0,0,1,1.317-.448,0.538,0.538,0,0,1,.15,0c2.608,0.407,4.461,7.549,4.8,8.964A0.6,0.6,0,0,1,185.665,765.215Zm-1.95.207v0a0.6,0.6,0,0,1-.584.411c-6.747.105-8.984,2.115-9.006,2.135a0.573,0.573,0,0,1-.488.137,0.556,0.556,0,0,1-.4-0.3,5.439,5.439,0,0,1-.446-3.482,4.38,4.38,0,0,1,.481-1.306,0.56,0.56,0,0,1,.095-0.116c1.96-1.772,8.674,1.278,9.986,1.9A0.6,0.6,0,0,1,183.715,765.422Zm-1.068,1.647,0,0a0.6,0.6,0,0,1-.049.713c-4.167,5.312-4.015,8.316-4.013,8.345a0.575,0.575,0,0,1-.2.466,0.555,0.555,0,0,1-.483.121,5.427,5.427,0,0,1-2.986-1.842,4.356,4.356,0,0,1-.711-1.2,0.574,0.574,0,0,1-.03-0.147c-0.142-2.638,6.455-5.941,7.769-6.568A0.6,0.6,0,0,1,182.647,767.069Zm0.607,1.866h0a0.6,0.6,0,0,1,.523.486c1.5,6.581,3.93,8.351,3.954,8.368a0.577,0.577,0,0,1,.236.45,0.561,0.561,0,0,1-.211.452,5.435,5.435,0,0,1-3.311,1.162,4.328,4.328,0,0,1-1.376-.2,0.519,0.519,0,0,1-.134-0.07c-2.138-1.547-.548-8.754-0.208-10.17A0.6,0.6,0,0,1,183.254,768.935Zm16.5,10.918a0.005,0.005,0,0,1,0,0,0.619,0.619,0,0,1-.714-0.006c0.239,0.15-4.5-3.039-7.646-3.906-3.547-.894-5.483-4.585-6.26-5.6a0.606,0.606,0,0,1-.043-0.709l0,0a0.632,0.632,0,0,1,.707-0.1c6.469,2.6,7.8-.316,14.019,9.612A0.587,0.587,0,0,1,199.75,779.853Zm-12.967-11.2a0,0,0,0,0,0,0,0.606,0.606,0,0,1,.368-0.613c6.122-2.841,7.349-5.588,7.361-5.615a0.574,0.574,0,0,1,.39-0.324,0.556,0.556,0,0,1,.486.112,5.43,5.43,0,0,1,1.823,3,4.34,4.34,0,0,1,.091,1.388,0.557,0.557,0,0,1-.04.145c-1.07,2.416-8.445,2.363-9.9,2.325A0.605,0.605,0,0,1,186.783,768.653Zm14.673,12.167h0a0.6,0.6,0,0,1-.444-0.559c-0.5-6.733-2.643-8.847-2.665-8.867a0.579,0.579,0,0,1-.166-0.48,0.558,0.558,0,0,1,.275-0.415,5.437,5.437,0,0,1,3.447-.656,4.346,4.346,0,0,1,1.331.4,0.53,0.53,0,0,1,.122.089c1.883,1.85-.76,8.74-1.307,10.09A0.605,0.605,0,0,1,201.456,780.82Zm-3.53-.248v0a0.6,0.6,0,0,1-.455.551c-6.475,1.9-8.1,4.43-8.112,4.455a0.579,0.579,0,0,1-.435.262,0.557,0.557,0,0,1-.463-0.183,5.436,5.436,0,0,1-1.356-3.238,4.361,4.361,0,0,1,.116-1.386,0.533,0.533,0,0,1,.061-0.138c1.417-2.229,8.7-1.075,10.133-.82A0.605,0.605,0,0,1,197.926,780.572Zm-0.591,1.871,0,0a0.6,0.6,0,0,1,.142.7c-2.6,6.229-1.658,9.085-1.648,9.113a0.574,0.574,0,0,1-.07.5,0.555,0.555,0,0,1-.433.245,5.43,5.43,0,0,1-3.369-.981,4.363,4.363,0,0,1-1-.963,0.583,0.583,0,0,1-.068-0.134c-0.839-2.5,4.642-7.444,5.741-8.4A0.606,0.606,0,0,1,197.335,782.443Zm1.081,1.637h0a0.606,0.606,0,0,1,.633.33c3.2,5.944,6.01,7,6.038,7.015a0.576,0.576,0,0,1,.347.37,0.56,0.56,0,0,1-.083.492,5.432,5.432,0,0,1-2.883,2,4.372,4.372,0,0,1-1.379.175,0.53,0.53,0,0,1-.147-0.032c-2.473-.923-2.858-8.293-2.907-9.748A0.607,0.607,0,0,1,198.416,784.08Zm1.951,0.189,0,0a0.6,0.6,0,0,1,.654-0.285c6.629,1.253,9.223-.268,9.248-0.283a0.574,0.574,0,0,1,.506-0.036,0.555,0.555,0,0,1,.33.373,5.442,5.442,0,0,1-.26,3.5,4.339,4.339,0,0,1-.733,1.182,0.53,0.53,0,0,1-.116.095c-2.274,1.342-8.24-3-9.4-3.872A0.607,0.607,0,0,1,200.367,784.269Zm1.376-1.4,0,0a0.6,0.6,0,0,1,.191-0.688c5.146-4.368,5.6-7.342,5.6-7.372a0.577,0.577,0,0,1,.29-0.416,0.557,0.557,0,0,1,.5-0.021,5.431,5.431,0,0,1,2.555,2.4,4.348,4.348,0,0,1,.457,1.314,0.538,0.538,0,0,1,0,.15c-0.389,2.613-7.512,4.524-8.924,4.875A0.6,0.6,0,0,1,201.743,782.87Z" transform="translate(-172.688 -755.594)"/>
</svg>
