<svg xmlns="http://www.w3.org/2000/svg" width="36.938" height="36.94" viewBox="0 0 36.938 36.94">
  <defs>
    <style>
      .cls-1 {
        fill: #d9f3fa;
        fill-rule: evenodd;
        opacity: 0.5;
      }
    </style>
  </defs>
  <path id="feature-yubikey.svg" class="cls-1" d="M979.192,1307.91l9.9,9.9a2,2,0,0,1,0,2.83l-16.971,16.97a2,2,0,0,1-2.828,0l-9.9-9.9a2,2,0,0,1,0-2.83l16.971-16.97A2,2,0,0,1,979.192,1307.91Zm-19.8,22.63,7.071,7.07-6.363,6.36a1,1,0,0,1-1.415,0l-5.657-5.66a1,1,0,0,1,0-1.41Zm18.385-11.32a5,5,0,1,1-7.071,0A5,5,0,0,1,977.778,1319.22Zm-18.385,14.14,1.415,1.42-4.243,4.24-1.414-1.41Zm2.829,2.83,1.414,1.42-4.243,4.24-1.414-1.41Z" transform="translate(-952.75 -1307.34)"/>
</svg>
