<svg xmlns="http://www.w3.org/2000/svg" width="34.562" height="34.188" viewBox="0 0 34.562 34.188">
  <defs>
    <style>
      .cls-1 {
        fill: #d9f3fa;
        fill-rule: evenodd;
        opacity: 0.5;
      }
    </style>
  </defs>
  <path id="feature-keys.svg" class="cls-1" d="M207.114,895.765a1.611,1.611,0,0,0,1.679-1.68c-0.044-1.777-.107-4.306-0.107-4.306a2.114,2.114,0,0,0-.482-1.323l-10.641-10.641c0.4-1.558-.869-16.594-9.2-16.265-2.1.083-5.712,1.641-9.188,4.955-2.922,2.786-4.949,7.429-4.954,9.187-0.03,10.286,19.563,8.1,16.623,8.844l2.113,1.048,3.036-.942s1.852-.087.859,0.906l-1.679,1.678c-0.885.886,1.352,1.306,1.352,1.306l3-.355s1.859-.094.857,0.909l-1.7,1.7c-0.807.807,1.371,1.286,1.371,1.286l3-.355s1.867-.1.911,0.854l-1.7,1.7c-0.894.895,1.394,1.412,1.394,1.412Zm-19.671-25.351a2.973,2.973,0,1,1-4.307-.108A3.048,3.048,0,0,1,187.443,870.414Z" transform="translate(-174.219 -861.562)"/>
</svg>
