<svg xmlns="http://www.w3.org/2000/svg" width="37" height="32" viewBox="0 0 37 32">
  <defs>
    <style>
      .cls-1 {
        fill: #d9f3fa;
        fill-rule: evenodd;
        opacity: 0.5;
      }
    </style>
  </defs>
  <path id="feature-sort.svg" class="cls-1" d="M962.764,555.306l-5.329,5.942-5.252-5.67A0.956,0.956,0,0,0,952,555.44V553a2,2,0,0,1,2-2h9v4.121A1,1,0,0,0,962.764,555.306Zm-5.98,8.351a0.932,0.932,0,0,0,.683.327l0.048,0a0.93,0.93,0,0,0,.673-0.324c0.008-.01.011-0.023,0.019-0.033L963,558.28V583h-9a2,2,0,0,1-2-2V558.492Zm31.98,5.649-5.329,5.942-5.252-5.67A0.956,0.956,0,0,0,978,569.44V551h9a2,2,0,0,1,2,2v16.121A1,1,0,0,0,988.764,569.306Zm-5.98,8.351a0.932,0.932,0,0,0,.683.327l0.048,0a0.93,0.93,0,0,0,.673-0.324c0.008-.01.011-0.023,0.019-0.033L989,572.281V581a2,2,0,0,1-2,2h-9V572.492Zm-7.02-15.35-5.329,5.941-5.252-5.67A0.956,0.956,0,0,0,965,562.44V551h11v11.121A0.977,0.977,0,0,0,975.764,562.307Zm-5.98,8.35a0.932,0.932,0,0,0,.683.327l0.048,0a0.93,0.93,0,0,0,.673-0.324c0.008-.01.011-0.023,0.019-0.033L976,565.281V583H965V565.492Z" transform="translate(-952 -551)"/>
</svg>
