<svg xmlns="http://www.w3.org/2000/svg" width="39.781" height="38" viewBox="0 0 39.781 38">
  <defs>
    <style>
      .cls-1 {
        fill: #d9f3fa;
        fill-rule: evenodd;
        opacity: 0.5;
      }
    </style>
  </defs>
  <path id="feature-rules.svg" class="cls-1" d="M211.268,986.625l-7.531,6.864a2.128,2.128,0,0,1-2.926-.054,1.934,1.934,0,0,1,.052-2.812l5.09-4.639c-4.073-.895-10.9-0.592-11.953,11.016-0.008.091-.016,0.169-0.024,0.259V1003H190v-6.172c0-.057-0.01-0.105-0.015-0.163-1.053-11.443-7.783-11.434-11.874-10.552l5.111,4.563a1.884,1.884,0,0,1,.052,2.773,2.167,2.167,0,0,1-2.938.053l-7.568-6.756a1.884,1.884,0,0,1-.052-2.773l7.147-7.372a2.166,2.166,0,0,1,2.938-.054,1.885,1.885,0,0,1,.052,2.774l-2.415,2.344a12.367,12.367,0,0,1,6.17,1.119A8.265,8.265,0,0,1,190,986.091V972.125l-2.625,2.784a1.936,1.936,0,0,1-2.812,0,2.131,2.131,0,0,1,0-2.927l6.02-6.385a1.936,1.936,0,0,1,1.368-.6c0.033,0,.064,0,0.1,0a1.936,1.936,0,0,1,1.348.594c0.045,0.047.079,0.1,0.119,0.153l5.924,6.543a2.292,2.292,0,0,1,0,3.057,1.888,1.888,0,0,1-2.821,0l-2.64-2.916v13.815a8.364,8.364,0,0,1,3.386-3.324,12.131,12.131,0,0,1,6.157-1.135l-2.413-2.392a1.934,1.934,0,0,1,.052-2.812,2.129,2.129,0,0,1,2.925.054l7.237,7.173A1.935,1.935,0,0,1,211.268,986.625Z" transform="translate(-172.125 -965)"/>
</svg>
