<?xml version="1.0" encoding="utf-8"?>
<!-- Generator: Adobe Illustrator 21.0.2, SVG Export Plug-In . SVG Version: 6.00 Build 0)  -->
<svg version="1.1" id="Layer_1" xmlns="http://www.w3.org/2000/svg" xmlns:xlink="http://www.w3.org/1999/xlink" x="0px" y="0px"
	 viewBox="0 0 40 40" style="enable-background:new 0 0 40 40;" xml:space="preserve">
<style type="text/css">
	.st0{opacity:0.5;}
	.st1{fill:#D9F3FA;}
</style>
<g class="st0">
	<path class="st1" d="M8.1,13H13V8H8.7C8.3,9.5,8.1,11.2,8.1,13z"/>
	<path class="st1" d="M14,1.5V7h4.2C17.3,3.9,15.8,1.8,14,1.5z"/>
	<polygon class="st1" points="19,25 19,20 14,20 14,22.3 14,25 14,25 18.3,25 	"/>
	<path class="st1" d="M18.5,8H14v5h5C19,11.2,18.8,9.5,18.5,8z"/>
	<path class="st1" d="M12.1,25l0.9,0v-5H9C9.7,22.4,10.8,24.2,12.1,25z"/>
	<path class="st1" d="M8.7,19H13v-5H8.1C8.1,15.8,8.3,17.5,8.7,19z"/>
	<polygon class="st1" points="19,19 19,14 14,14 14,19 	"/>
	<path class="st1" d="M31.1,26H26v5h4.4C30.8,29.5,31,27.8,31.1,26z"/>
	<path class="st1" d="M23.6,7c-1.7-2.6-4.3-4.5-7.4-5.2c1.2,1.1,2.3,2.9,3,5.2H23.6z"/>
	<path class="st1" d="M32,25h5.5c-0.1-1.8-0.6-3.5-1.3-5h-4.8C31.8,21.5,32,23.2,32,25z"/>
	<path class="st1" d="M35.6,19c-1.7-2.6-4.3-4.5-7.5-5.2c1.2,1.1,2.3,2.9,3,5.2H35.6z"/>
	<path class="st1" d="M26,14v5h4.2c-0.7-2.4-1.8-4.2-3.1-5H26z"/>
	<path class="st1" d="M20,13h1.4h4.1c-0.1-1.8-0.6-3.5-1.3-5h-4.8C19.8,9.5,20,11.2,20,13z"/>
	<path class="st1" d="M30.5,20H26v5h5C31,23.2,30.8,21.5,30.5,20z"/>
	<path class="st1" d="M20,14C20,14,20,14,20,14L20,14l0,5h5v-5H20z"/>
	<path class="st1" d="M25,37.4V32h-4C21.8,34.9,23.3,37,25,37.4z"/>
	<path class="st1" d="M20.7,31H25v-5h-4.9C20.1,27.8,20.3,29.5,20.7,31z"/>
	<path class="st1" d="M20.7,20H20v5h5v-5L20.7,20C20.7,20,20.7,20,20.7,20z"/>
	<path class="st1" d="M26,32v5.4c1.8-0.3,3.3-2.4,4.2-5.4H26z"/>
	<path class="st1" d="M31.4,31h4.7c0.8-1.5,1.3-3.2,1.4-5H32C32,27.7,31.8,29.4,31.4,31z"/>
	<path class="st1" d="M28.4,37.1c3-0.7,5.5-2.6,7.2-5.1h-4.5C30.5,34.1,29.6,36,28.4,37.1z"/>
	<path class="st1" d="M10.8,1.8C7.7,2.5,5.2,4.4,3.5,7H8C8.6,4.7,9.6,2.9,10.8,1.8z"/>
	<path class="st1" d="M7.7,8H2.9c-0.8,1.5-1.3,3.2-1.3,5h5.5C7.1,11.2,7.3,9.5,7.7,8z"/>
	<path class="st1" d="M7.1,14H1.6c0.1,1.8,0.6,3.5,1.4,5h4.7C7.3,17.4,7.1,15.7,7.1,14z"/>
	<path class="st1" d="M13,7V1.5C11.3,1.9,9.8,4,8.9,7H13z"/>
	<path class="st1" d="M15.5,32c1.6,2.5,4.1,4.4,7.1,5.1c-1.1-1.2-2-3-2.6-5.1H15.5z"/>
	<path class="st1" d="M19.1,26h-0.7h-4.7c0.1,1.8,0.6,3.5,1.4,5h4.7C19.3,29.4,19.1,27.7,19.1,26z"/>
	<path class="st1" d="M3.5,20c1.6,2.5,4.1,4.4,7.1,5.1c-1.1-1.2-2-3-2.6-5.1H3.5z"/>
</g>
</svg>
