<svg xmlns="http://www.w3.org/2000/svg" width="34.031" height="39.75" viewBox="0 0 34.031 39.75">
  <defs>
    <style>
      .cls-1 {
        fill: #d9f3fa;
        fill-rule: evenodd;
        opacity: 0.5;
      }
    </style>
  </defs>
  <path id="feature-copy-remote.svg" class="cls-1" d="M190,1015.72s1.376,1.37,2.852,2.85a1.459,1.459,0,0,0,2.148.15s1.5-1.5,2.963-2.97a1.406,1.406,0,0,1,2.037-.03s1.612,1.61,3.06,3.06a1.361,1.361,0,0,0,1.94-.06s1.587-1.59,3-3c1.023-1.03,1,0,1,0v22.01c0,17.07-5.443,17.24-7.471,17.24H177a2.232,2.232,0,0,1-2-2.25s4-.22,4-14.97v-22.03s-0.026-1.03,1,0c1.411,1.41,3,3,3,3a1.546,1.546,0,0,0,1.989.01c0.513-.51,3.01-3.02,3.011-3.01A1.251,1.251,0,0,1,190,1015.72Zm10.431,27.25H187.713a4.278,4.278,0,0,1-1.7-8.21,2.878,2.878,0,0,1-.049-0.47,3.118,3.118,0,0,1,3.128-3.11,3.085,3.085,0,0,1,1.748.53,5.828,5.828,0,0,1,10.527,3.16A4.105,4.105,0,0,1,200.431,1042.97Z" transform="translate(-175 -1015.22)"/>
</svg>
