<svg xmlns="http://www.w3.org/2000/svg" width="34.844" height="33.844" viewBox="0 0 34.844 33.844">
  <defs>
    <style>
      .cls-1 {
        fill: #d9f3fa;
        fill-rule: evenodd;
        opacity: 0.5;
      }
    </style>
  </defs>
  <path id="feature-sync-file.svg" class="cls-1" d="M979.184,682.853l-0.008,0a1.777,1.777,0,0,1-2.035-.587c-12.819-15.52-21.619-16.939-21.706-16.951a1.7,1.7,0,0,1-1.279-2.372,16.232,16.232,0,0,1,7.187-7.61,12.833,12.833,0,0,1,3.9-1.343,1.617,1.617,0,0,1,.445,0c7.733,1.221,13.227,22.618,14.232,26.859A1.825,1.825,0,0,1,979.184,682.853Zm-5.109,3.126a0.026,0.026,0,0,1,0,0,0.991,0.991,0,0,1-1.058.523c-11.106-1.573-15.261,1.148-15.3,1.176a0.949,0.949,0,0,1-1.417-.5,9.039,9.039,0,0,1,.1-5.832,7.169,7.169,0,0,1,1.1-2.019,0.855,0.855,0,0,1,.185-0.165c3.641-2.4,13.94,4.342,15.946,5.709A1.018,1.018,0,0,1,974.075,685.979Zm10.91-10.581h-0.006a0.99,0.99,0,0,1-.764-0.9c-1.177-11.155-4.827-14.523-4.864-14.556a0.948,0.948,0,0,1,.136-1.5,9.041,9.041,0,0,1,5.681-1.322,7.171,7.171,0,0,1,2.226.577,0.909,0.909,0,0,1,.206.139c3.216,2.948-.819,14.578-1.658,16.857A1.016,1.016,0,0,1,984.985,675.4Z" transform="translate(-954 -654)"/>
</svg>
