<svg xmlns="http://www.w3.org/2000/svg" width="38" height="34.03" viewBox="0 0 38 34.03">
  <defs>
    <style>
      .cls-1 {
        fill: #d9f3fa;
        fill-rule: evenodd;
        opacity: 0.5;
      }
    </style>
  </defs>
  <path id="feature-proxycommand.svg" class="cls-1" d="M990,1188l-24,8,0-.01-2-1.06v-11.48c0-3.99-2.239-8.45-5-9.95s-5,.52-5,4.52v11.59l-2-1.06v-11.71c0-3.47,1.265-5.85,3.175-6.6l0-.01,23.906-7.96a4.506,4.506,0,0,1,3.921.39c3.866,2.05,7,8.16,7,13.63v11.7h0Zm-31-10.68c1.657,0.96,3,3.79,3,6.33V1187l-6,2.18v-8.99C956,1177.65,957.343,1176.37,959,1177.32Z" transform="translate(-952 -1161.97)"/>
</svg>
