<svg xmlns="http://www.w3.org/2000/svg" width="30" height="33" viewBox="0 0 30 33">
  <defs>
    <style>
      .cls-1 {
        fill: #fff;
        fill-rule: evenodd;
        opacity: 0.5;
      }
    </style>
  </defs>
  <path id="asterisk.svg" class="cls-1" d="M1053.68,2331.75a2.349,2.349,0,0,1-3.15.85,2.263,2.263,0,0,1-.2-0.13l-10.29-7.22,1.27,12.29a2.27,2.27,0,0,1-2.1,2.46,2.3,2.3,0,0,1-2.52-2.05,1.408,1.408,0,0,1,0-.41l1.27-12.29-10.29,7.22a2.359,2.359,0,0,1-3.24-.55,2.222,2.222,0,0,1,.57-3.15,2.43,2.43,0,0,1,.35-0.2l11.57-5.07-11.57-5.07a2.238,2.238,0,0,1-1.13-3,2.344,2.344,0,0,1,3.09-1.1,2.159,2.159,0,0,1,.36.2l10.29,7.22-1.27-12.29a2.277,2.277,0,0,1,2.1-2.46,2.3,2.3,0,0,1,2.52,2.05,1.408,1.408,0,0,1,0,.41l-1.27,12.29,10.29-7.22a2.359,2.359,0,0,1,3.24.55,2.22,2.22,0,0,1-.56,3.15c-0.12.07-.24,0.14-0.36,0.2l-11.57,5.07,11.57,5.07a2.226,2.226,0,0,1,1.14,2.98A1.281,1.281,0,0,1,1053.68,2331.75Z" transform="translate(-1024 -2307)"/>
</svg>
