<svg id="Layer_1" data-name="Layer 1" xmlns="http://www.w3.org/2000/svg" viewBox="0 0 64 64"><title>Icons 300</title><path style="fill: #5c5c5c;" d="M32.01,54.0208a25.5587,25.5587,0,0,1-4.69-.498,2.5863,2.5863,0,0,0-2.0544.5322,21.0889,21.0889,0,0,1-10.0576,3.9527A1.0906,1.0906,0,0,1,14.1923,56.31a15.5356,15.5356,0,0,0,2.96-5.9666,1.6132,1.6132,0,0,0-.6024-1.5706A21.1586,21.1586,0,0,1,8.01,32.0208c0-12.1352,10.7452-22,24-22s24,9.8647,24,22S45.2651,54.0208,32.01,54.0208Zm0-8a3,3,0,1,0-3-3A3,3,0,0,0,32.01,46.0208Zm0-28c-4.4184,0-8,3.134-8,7a8.3747,8.3747,0,0,0,.2881,2.2674,1.0045,1.0045,0,0,0,.9695.7327h2.0308a.9956.9956,0,0,0,.94-1.3244,5.1342,5.1342,0,0,1-.26-1.6757c0-1.6569,1.9107-3,3.8438-3s3.8124,1.343,3.8124,3c0,4.9817-5.6252,4.3555-5.6252,11a1,1,0,0,0,1,1h2.25a1,1,0,0,0,1-1c0-4.8332,5.75-4.5832,5.75-11C40.01,21.1548,36.4288,18.0208,32.01,18.0209Z" fill-rule="evenodd" /></svg>