<svg xmlns="http://www.w3.org/2000/svg" width="24" height="22" viewBox="0 0 24 22">
  <defs>
    <style>
      .cls-1 {
        fill: #fff;
        fill-rule: evenodd;
        opacity: 0.5;
      }
    </style>
  </defs>
  <path id="info-site.svg" class="cls-1" d="M928,1998H908a2,2,0,0,1-2-2v-7.23a0.767,0.767,0,0,1,.761-0.77,0.816,0.816,0,0,1,.431.13A4.943,4.943,0,0,0,910,1989h6v1.04c0,0.43.8,0.96,2,.96s2-.53,2-0.96V1989h6a4.943,4.943,0,0,0,2.808-.87,0.767,0.767,0,0,1,1.192.64V1996A2,2,0,0,1,928,1998Zm-2-10h-6v-1a0.5,0.5,0,0,0-.5-0.5h-3a0.5,0.5,0,0,0-.5.5v1h-6a4,4,0,0,1-4-4v-2a2,2,0,0,1,2-2h4.5v-1.5a2.5,2.5,0,0,1,2.5-2.5h6a2.5,2.5,0,0,1,2.5,2.5v1.5H928a2,2,0,0,1,2,2v2A4,4,0,0,1,926,1988Zm-4.5-9.5a0.5,0.5,0,0,0-.5-0.5h-6a0.5,0.5,0,0,0-.5.5v1.5h7v-1.5Z" transform="translate(-906 -1976)"/>
</svg>
