<svg xmlns="http://www.w3.org/2000/svg" width="24" height="24" viewBox="0 0 24 24">
  <defs>
    <style>
      .cls-1 {
        fill: #fff;
        fill-rule: evenodd;
        opacity: 0.5;
      }
    </style>
  </defs>
  <path id="info-free-upgrade.svg" class="cls-1" d="M813,1948a12,12,0,1,1,12,12A12,12,0,0,1,813,1948Zm22,0a10,10,0,1,0-11,9.95v-12.54l-3.786,3.8a1,1,0,0,1-1.415-1.42l5.5-5.51a1,1,0,0,1,1.413,0h0l5.5,5.51a1,1,0,1,1-1.415,1.42h0l-3.8-3.81v12.55A9.994,9.994,0,0,0,835,1948Z" transform="translate(-813 -1936)"/>
</svg>
