<svg xmlns="http://www.w3.org/2000/svg" width="22" height="23" viewBox="0 0 22 23">
  <defs>
    <style>
      .cls-1 {
        fill: #fff;
        fill-rule: evenodd;
        opacity: 0.5;
      }
    </style>
  </defs>
  <path id="info-upgrade.svg" class="cls-1" d="M717,1896.99v3a1,1,0,0,1-2,0v-3A1,1,0,0,1,717,1896.99Zm15,3v17.02a2,2,0,0,1-2,2H712a2,2,0,0,1-2-2v-17.02a2,2,0,0,1,2-2h1.5a0.5,0.5,0,0,1,.5.5v1.41a2.056,2.056,0,0,0,1.8,2.08,2,2,0,0,0,2.187-1.79c0.006-.07.01-0.13,0.01-0.2v-1.5a0.5,0.5,0,0,1,.5-0.5h5a0.5,0.5,0,0,1,.5.5v1.41a2.056,2.056,0,0,0,1.8,2.08,2,2,0,0,0,2.187-1.79c0.006-.07.01-0.13,0.01-0.2v-1.5a0.5,0.5,0,0,1,.5-0.5H730a2,2,0,0,1,2,2h0Zm-2.5,6.01h-17a0.5,0.5,0,0,0-.5.5v10.01a0.5,0.5,0,0,0,.5.5h17a0.5,0.5,0,0,0,.5-0.5V1906.5a0.5,0.5,0,0,0-.5-0.5h0Zm-3.5-10.01a1,1,0,0,1,1,1v3a1,1,0,0,1-2,0v-3a1,1,0,0,1,1-1h0Z" transform="translate(-710 -1896)"/>
</svg>
