<svg id="payment-discover.svg" xmlns="http://www.w3.org/2000/svg" width="137.15" height="23" viewBox="0 0 137.15 23">
  <defs>
    <style>
      .cls-1, .cls-2 {
        fill: #fff;
        fill-rule: evenodd;
      }

      .cls-2 {
        opacity: 0.8;
      }
    </style>
  </defs>
  <path class="cls-1" d="M1300.78,3229l9.46-22.5h-4.62l-5.92,14.73-5.83-14.73h-4.65l9.27,22.5h2.29Zm23.5-4.27h-7.84v-5.93h7.54v-3.72h-7.54v-4.87h7.84v-3.71h-12.11v21.95h12.11v-3.72Zm-64.49,4.2a11.708,11.708,0,0,0,5.34-1.28v-5.04a6.78,6.78,0,0,1-5.15,2.4c-4.3,0-7.34-3.12-7.34-7.56a7.285,7.285,0,0,1,7.15-7.54,7.106,7.106,0,0,1,5.34,2.47v-5.04a10.875,10.875,0,0,0-5.25-1.34,11.509,11.509,0,0,0-11.64,11.48A11.346,11.346,0,0,0,1259.79,3228.93Zm71.58-9.31h0.56l5.89,8.83h5.25l-6.88-9.26a5.833,5.833,0,0,0,4.98-6.22c0-4.11-2.81-6.47-7.74-6.47h-6.34v21.95h4.28v-8.83Zm0-9.67h1.31c2.67,0,4.09,1.12,4.09,3.26,0,2.2-1.42,3.38-4.16,3.38h-1.24v-6.64Zm-111.41,15.96a11.051,11.051,0,0,0,3.97-8.43c0-6.48-4.83-10.98-11.75-10.98h-6.27v21.95h6.23A11.439,11.439,0,0,0,1219.96,3225.91Zm-9.78-1.18v-14.52h1.15c2.76,0,4.42.5,5.84,1.78a7.386,7.386,0,0,1,2.36,5.46,7.543,7.543,0,0,1-2.36,5.53c-1.35,1.21-3.08,1.75-5.84,1.75h-1.15Zm29,0.32a5.049,5.049,0,0,1-4.66-2.93l-2.75,2.67a8.512,8.512,0,0,0,7.57,4.19c4.43,0,7.55-2.98,7.55-7.22,0-3.49-1.44-5.07-6.3-6.85-2.57-.95-3.32-1.58-3.32-2.76,0-1.38,1.35-2.43,3.19-2.43a4.425,4.425,0,0,1,3.45,1.77l2.22-2.92a9.5,9.5,0,0,0-6.42-2.44c-3.87,0-6.83,2.7-6.83,6.28,0,3.03,1.38,4.57,5.38,6.03a16.353,16.353,0,0,1,2.96,1.25,2.628,2.628,0,0,1,1.27,2.27A3.117,3.117,0,0,1,1239.18,3225.05Zm-9.03-18.55h-4.25v21.95h4.25V3206.5Z" transform="translate(-1205.91 -3206)"/>
  <path class="cls-2" d="M1278.41,3206.08a11.474,11.474,0,0,0-11.66,11.28,11.654,11.654,0,1,0,11.66-11.28" transform="translate(-1205.91 -3206)"/>
</svg>
