<svg xmlns="http://www.w3.org/2000/svg" width="75" height="75" viewBox="0 0 75 75">
  <defs>
    <style>
      .cls-1 {
        fill: #fff;
        fill-rule: evenodd;
      }
    </style>
  </defs>
  <path id="payment-amex.svg" class="cls-1" d="M1121.92,3224.4v1.6h4.63v1.79h-4.63v1.75h5.18l2.41-2.58-2.3-2.56h-5.29Zm19.62-14.95a2.068,2.068,0,0,0-1-.16h-2.6v1.95h2.56a2.042,2.042,0,0,0,1.05-.18,0.9,0.9,0,0,0,.43-0.84A0.805,0.805,0,0,0,1141.54,3209.45Zm9.03,15.11a2.11,2.11,0,0,0-1.01-.16h-2.59v1.97h2.56a2,2,0,0,0,1.04-.18,0.933,0.933,0,0,0,.43-0.84A0.829,0.829,0,0,0,1150.57,3224.56Zm-10.26-.16h-2.75v2.24h2.72a1.137,1.137,0,0,0,1.32-1.16A1.076,1.076,0,0,0,1140.31,3224.4Zm18.04-15.45-1.45,3.5h2.91Zm14.97,15.66a0.733,0.733,0,0,0,.15,1.29,2.347,2.347,0,0,0,.82.1l1.13,0.03a3.4,3.4,0,0,1,2.41.71,1.462,1.462,0,0,1,.16.19v-2.48h-3.82A1.467,1.467,0,0,0,1173.32,3224.61Zm1.83,6.76h-4.11v-1.88h4.09a1.268,1.268,0,0,0,.86-0.22,0.787,0.787,0,0,0-.01-1.16,1.128,1.128,0,0,0-.75-0.19c-1.97-.07-4.44.06-4.44-2.72,0-1.28.81-2.62,3.02-2.62h4.18V3180h-74.98v75h74.98v-24.72A3.287,3.287,0,0,1,1175.15,3231.37Zm-25.31-22.89a4.291,4.291,0,0,1,3.2-1.02h2.04v1.88h-1.99a2.077,2.077,0,0,0-1.63.52,2.893,2.893,0,0,0-.6,1.99,3.083,3.083,0,0,0,.58,2.07,2.059,2.059,0,0,0,1.47.45h0.94l2.97-6.91h3.16l3.57,8.31v-8.31h3.21l3.7,6.12v-6.12h2.16v8.79h-2.99l-3.99-6.6v6.6h-4.29l-0.82-1.96h-4.38l-0.8,1.96h-2.46a4.437,4.437,0,0,1-3.06-.98,4.391,4.391,0,0,1-1.12-3.35A4.7,4.7,0,0,1,1149.84,3208.48Zm-4.32-1.02h2.15v8.79h-2.15v-8.79Zm-18.19,0h7.05v1.83h-4.94v1.58h4.82v1.8h-4.82v1.76h4.94v1.82h-7.05v-8.79Zm-11.7,1.9v6.89h-4.29l-0.81-1.96h-4.39l-0.82,1.96h-2.29l3.78-8.79h3.13l3.58,8.32v-8.32h3.44l2.76,5.96,2.54-5.96h3.5v8.79h-2.16v-6.89l-3.06,6.89h-1.85Zm24.56,19.06h-2.63v2.95h-4.1l-2.59-2.91-2.7,2.91h-8.35v-8.79h8.48l2.59,2.88,2.68-2.88h6.74c1.67,0,3.55.46,3.55,2.9S1142.03,3228.42,1140.19,3228.42Zm3.67-15.51a2.478,2.478,0,0,1,.35,1.61v1.73h-2.13l-0.01-1.11a2.579,2.579,0,0,0-.33-1.71,2.059,2.059,0,0,0-1.53-.38h-2.27v3.2h-2.1v-8.79h4.84a5.05,5.05,0,0,1,2.56.42,2.06,2.06,0,0,1,1.06,1.95,2.482,2.482,0,0,1-1.48,2.34A2.384,2.384,0,0,1,1143.86,3212.91Zm9.01,15.11a2.557,2.557,0,0,1,.35,1.61v1.74h-2.11v-1.1a2.547,2.547,0,0,0-.35-1.72,2.041,2.041,0,0,0-1.54-.39h-2.25v3.21h-2.12v-8.79h4.86a5.212,5.212,0,0,1,2.54.42,2.063,2.063,0,0,1,1.08,1.95,2.473,2.473,0,0,1-1.49,2.34A2.3,2.3,0,0,1,1152.87,3228.02Zm8.67-3.62h-4.94v1.6h4.82v1.79h-4.82v1.75l4.94,0.01v1.82h-7.04v-8.79h7.04v1.82Zm5.36,6.97h-4.1v-1.88h4.09a1.268,1.268,0,0,0,.86-0.22,0.787,0.787,0,0,0-.01-1.16,1.128,1.128,0,0,0-.75-0.19c-1.97-.07-4.44.06-4.44-2.72,0-1.28.8-2.62,3.01-2.62h4.23v1.87h-3.87a1.45,1.45,0,0,0-.84.16,0.736,0.736,0,0,0,.14,1.29,2.347,2.347,0,0,0,.82.1l1.14,0.03a3.354,3.354,0,0,1,2.4.71,2.424,2.424,0,0,1,.63,1.86C1170.21,3230.49,1169.03,3231.37,1166.9,3231.37Zm-31.44-.8v-7.04l-3.24,3.46Zm-28.57-18.12h2.88l-1.44-3.5Z" transform="translate(-1103 -3180)"/>
</svg>
