<?xml version="1.0" encoding="utf-8"?>
<!-- Generator: Adobe Illustrator 22.0.1, SVG Export Plug-In . SVG Version: 6.00 Build 0)  -->
<svg version="1.1" id="Layer_1" xmlns="http://www.w3.org/2000/svg" xmlns:xlink="http://www.w3.org/1999/xlink" x="0px" y="0px"
	 viewBox="0 0 512 176" style="enable-background:new 0 0 512 176;" xml:space="preserve">
<g>
	<path d="M109.5,39.3c-5.1-6-14.2-9.2-26.3-9.2H47c-2.5,0-4.6,1.8-5,4.2L27.4,127c-0.3,1.8,1.1,3.5,3,3.5h17.3c2.5,0,4.6-1.8,5-4.2
		l3.9-25c0.4-2.4,2.5-4.2,5-4.2H73c23.8,0,37.5-11.5,41.1-34.3C115.7,52.7,114.2,44.8,109.5,39.3z M87.3,63.9c-2,13-11.9,13-21.5,13
		h-5.5l3.8-24.2c0.2-1.5,1.5-2.5,3-2.5h2.5c6.5,0,12.7,0,15.9,3.7C87.4,56.1,88,59.4,87.3,63.9z"/>
	<path d="M191.2,63.5h-17.3c-1.5,0-2.7,1.1-3,2.5l-0.8,4.8l-1.2-1.8c-3.7-5.4-12.1-7.3-20.4-7.3c-19.1,0-35.5,14.5-38.6,34.8
		c-1.7,10.1,0.7,19.8,6.4,26.6c5.3,6.2,12.8,8.8,21.8,8.8c15.4,0,24-9.9,24-9.9l-0.8,4.8c-0.3,1.8,1.1,3.5,3,3.5h15.6
		c2.5,0,4.6-1.8,5-4.2l9.4-59.2C194.4,65.2,193,63.5,191.2,63.5z M167,97.2c-1.7,9.9-9.5,16.5-19.5,16.5c-5,0-9-1.6-11.6-4.7
		c-2.6-3-3.5-7.4-2.7-12.2c1.6-9.8,9.5-16.7,19.4-16.7c4.9,0,8.9,1.6,11.5,4.7C166.7,88.1,167.8,92.4,167,97.2z"/>
	<path id="XMLID_5_" d="M283.3,63.5h-17.4c-1.7,0-3.2,0.8-4.2,2.2l-24,35.3l-10.2-34c-0.6-2.1-2.6-3.6-4.8-3.6h-17.1
		c-2.1,0-3.5,2-2.9,4l19.2,56.2l-18,25.4c-1.4,2,0,4.8,2.5,4.8h17.4c1.6,0,3.2-0.8,4.1-2.2l57.8-83.5
		C287.2,66.3,285.8,63.5,283.3,63.5z"/>
	<path d="M367.2,39.3c-5.1-6-14.2-9.2-26.3-9.2h-36.1c-2.5,0-4.6,1.8-5,4.2L285.2,127c-0.3,1.8,1.1,3.5,3,3.5h18.5
		c1.7,0,3.2-1.3,3.5-3l4.1-26.3c0.4-2.4,2.5-4.2,5-4.2h11.4c23.8,0,37.5-11.5,41.1-34.3C373.5,52.7,371.9,44.8,367.2,39.3z
		 M345.1,63.9c-2,13-11.9,13-21.5,13h-5.4l3.8-24.2c0.2-1.5,1.5-2.5,3-2.5h2.5c6.5,0,12.7,0,15.9,3.7
		C345.2,56.1,345.8,59.4,345.1,63.9z"/>
	<path d="M448.9,63.5h-17.3c-1.5,0-2.7,1.1-3,2.5l-0.8,4.8l-1.2-1.8c-3.7-5.4-12.1-7.3-20.4-7.3c-19.1,0-35.5,14.5-38.6,34.8
		c-1.6,10.1,0.7,19.8,6.4,26.6c5.3,6.2,12.8,8.8,21.8,8.8c15.4,0,24-9.9,24-9.9L419,127c-0.3,1.8,1.1,3.5,3,3.5h15.6
		c2.5,0,4.6-1.8,5-4.2l9.4-59.2C452.2,65.2,450.8,63.5,448.9,63.5z M424.8,97.2c-1.7,9.9-9.5,16.5-19.5,16.5c-5,0-9-1.6-11.6-4.7
		c-2.6-3-3.5-7.4-2.7-12.2c1.6-9.8,9.5-16.7,19.4-16.7c4.9,0,8.9,1.6,11.5,4.7C424.5,88.1,425.6,92.4,424.8,97.2z"/>
	<path id="XMLID_4_" d="M469.3,32.6L454.5,127c-0.3,1.8,1.1,3.5,3,3.5h14.9c2.5,0,4.6-1.8,5-4.2L492,33.6c0.3-1.8-1.1-3.5-3-3.5
		h-16.7C470.8,30.1,469.6,31.2,469.3,32.6z"/>
</g>
</svg>
