<svg id="payment-mc.svg" xmlns="http://www.w3.org/2000/svg" width="92.786" height="72" viewBox="0 0 92.786 72">
  <defs>
    <style>
      .cls-1, .cls-2, .cls-3 {
        fill: #fff;
        fill-rule: evenodd;
      }

      .cls-1 {
        opacity: 0.6;
      }

      .cls-2 {
        opacity: 0.8;
      }
    </style>
  </defs>
  <path id="a" class="cls-1" d="M1011.26,3182.96a28.69,28.69,0,1,0,17.72,51.25,28.648,28.648,0,0,1-10.95-22.56h0a28.662,28.662,0,0,1,10.95-22.56,28.548,28.548,0,0,0-17.72-6.13m-11.8,71.81v-4.78a2.839,2.839,0,0,0-3-3.03,2.962,2.962,0,0,0-2.676,1.36,2.79,2.79,0,0,0-2.517-1.36,2.523,2.523,0,0,0-2.231,1.13v-0.94h-1.657v7.62h1.673v-4.22a1.788,1.788,0,0,1,1.864-2.03c1.1,0,1.657.72,1.657,2.01v4.24h1.673v-4.22a1.8,1.8,0,0,1,1.864-2.03c1.131,0,1.673.72,1.673,2.01v4.24h1.672Zm24.759-7.62h-2.71v-2.31h-1.67v2.31h-1.55v1.52h1.55v3.47c0,1.77.68,2.82,2.64,2.82a3.834,3.834,0,0,0,2.07-.59l-0.47-1.42a3.077,3.077,0,0,1-1.47.44,1.051,1.051,0,0,1-1.1-1.28v-3.44h2.71v-1.52Zm14.13-.19a2.247,2.247,0,0,0-2.01,1.12v-0.93h-1.64v7.62h1.66v-4.27c0-1.26.54-1.96,1.62-1.96a2.765,2.765,0,0,1,1.04.19l0.51-1.56A3.679,3.679,0,0,0,1038.35,3246.96Zm-21.36.8a5.68,5.68,0,0,0-3.11-.8c-1.93,0-3.17.93-3.17,2.44,0,1.24.92,2.01,2.63,2.25l0.78,0.11c0.91,0.13,1.34.37,1.34,0.8,0,0.59-.61.92-1.74,0.92a4.024,4.024,0,0,1-2.53-.8l-0.78,1.3a5.516,5.516,0,0,0,3.29.98c2.2,0,3.48-1.03,3.48-2.48,0-1.34-1.01-2.04-2.66-2.28l-0.78-.11c-0.72-.1-1.29-0.24-1.29-0.75,0-.56.54-0.9,1.45-0.9a4.851,4.851,0,0,1,2.37.66Zm44.38-.8a2.259,2.259,0,0,0-2.01,1.12v-0.93h-1.64v7.62h1.66v-4.27c0-1.26.54-1.96,1.63-1.96a2.75,2.75,0,0,1,1.03.19l0.51-1.56A3.632,3.632,0,0,0,1061.37,3246.96Zm-21.35,4a3.851,3.851,0,0,0,4.07,4,3.971,3.971,0,0,0,2.74-.91l-0.8-1.33a3.392,3.392,0,0,1-1.99.68,2.444,2.444,0,0,1,0-4.88,3.336,3.336,0,0,1,1.99.69l0.8-1.34a4.02,4.02,0,0,0-2.74-.91A3.851,3.851,0,0,0,1040.02,3250.96Zm15.52,0v-3.81h-1.66v0.93a2.865,2.865,0,0,0-2.4-1.12,4,4,0,0,0,0,8,2.885,2.885,0,0,0,2.4-1.11v0.92h1.66v-3.81Zm-6.17,0a2.309,2.309,0,1,1,2.32,2.44A2.29,2.29,0,0,1,1049.37,3250.96Zm-19.99-4a4,4,0,0,0,.11,8,4.607,4.607,0,0,0,3.12-1.06l-0.81-1.23a3.6,3.6,0,0,1-2.21.79,2.113,2.113,0,0,1-2.28-1.86h5.66c0.01-.21.03-0.41,0.03-0.64C1032.98,3248.59,1031.52,3246.96,1029.38,3246.96Zm-0.03,1.48a1.9,1.9,0,0,1,1.93,1.85h-3.95A1.955,1.955,0,0,1,1029.35,3248.44Zm41.56,2.52v-6.87h-1.65v3.99a2.884,2.884,0,0,0-2.41-1.12,4,4,0,0,0,0,8,2.9,2.9,0,0,0,2.41-1.11v0.92h1.65v-3.81Zm-6.16,0a2.3,2.3,0,1,1,2.31,2.44A2.288,2.288,0,0,1,1064.75,3250.96Zm-55.95,0v-3.81h-1.66v0.93a2.884,2.884,0,0,0-2.41-1.12,4.005,4.005,0,0,0,0,8,2.9,2.9,0,0,0,2.41-1.11v0.92h1.66v-3.81Zm-6.17,0a2.309,2.309,0,1,1,2.31,2.44A2.288,2.288,0,0,1,1002.63,3250.96Z" transform="translate(-982.594 -3182.97)"/>
  <path class="cls-2" d="M1028.98,3189.09h0a28.715,28.715,0,0,0,0,45.12,28.7,28.7,0,0,0,0-45.12h0" transform="translate(-982.594 -3182.97)"/>
  <path class="cls-3" d="M1075.39,3211.65a28.687,28.687,0,0,1-46.41,22.56,28.7,28.7,0,0,0,0-45.12,28.687,28.687,0,0,1,46.41,22.56" transform="translate(-982.594 -3182.97)"/>
</svg>
