<svg xmlns="http://www.w3.org/2000/svg" width="123.438" height="40" viewBox="0 0 123.438 40">
  <defs>
    <style>
      .cls-1 {
        fill: #fff;
        fill-rule: evenodd;
        opacity: 0.9;
      }
    </style>
  </defs>
  <path id="payment-visa.svg" class="cls-1" d="M879.149,3198.68l-16.159,38.68H852.449l-7.952-30.87c-0.483-1.9-.9-2.6-2.37-3.4a41.439,41.439,0,0,0-9.838-3.29l0.235-1.12H849.5a4.65,4.65,0,0,1,4.6,3.94l4.2,22.39,10.38-26.33h10.476Zm41.307,26.05c0.044-10.21-14.069-10.77-13.972-15.33,0.031-1.39,1.347-2.87,4.23-3.24a18.648,18.648,0,0,1,9.832,1.73l1.753-8.2a26.588,26.588,0,0,0-9.331-1.72c-9.857,0-16.8,5.26-16.851,12.79-0.066,5.57,4.951,8.67,8.732,10.52,3.884,1.9,5.186,3.12,5.172,4.81-0.029,2.6-3.1,3.74-5.97,3.79a20.709,20.709,0,0,1-10.242-2.45L892,3235.91a30.058,30.058,0,0,0,11.09,2.05c10.478,0,17.33-5.19,17.363-13.23m26.031,12.63h9.224l-8.051-38.68h-8.513a4.533,4.533,0,0,0-4.245,2.83l-14.965,35.85h10.47l2.081-5.78h12.794Zm-11.129-13.71,5.251-14.52,3.022,14.52h-8.273ZM893.4,3198.68l-8.247,38.68h-9.974l8.25-38.68H893.4Z" transform="translate(-832.281 -3197.97)"/>
</svg>
