<svg xmlns="http://www.w3.org/2000/svg" width="156" height="44" viewBox="0 0 156 44">
  <defs>
    <style>
      .cls-1 {
        fill: #fff;
        fill-rule: evenodd;
      }
    </style>
  </defs>
  <path id="payment-ginfuri.svg" class="cls-1" d="M1447.71,3206.36a17.17,17.17,0,0,1-2.98,4.19h5.46q0.4,0,.81-0.03a18.4,18.4,0,0,1-3.29-4.16m9.3,0.99v2.21h6.91v-2.21h-6.91m-3.08,1.61a12.747,12.747,0,0,0-1.78,2.6l-0.39-.36v2.01a17.484,17.484,0,0,0-1.77-.09h-1.13v2.15h1.92a18.7,18.7,0,0,0,2.12-.12v3.02a15.015,15.015,0,0,0-2.12-.16c-0.12,0-.25.01-0.38,0.01h-1.54v7.82c1.42-.33,1.96-0.44,3.68-0.95l0.06,2.39a10.021,10.021,0,0,0,1.33-.24v-18.08m-9.2,1.59h0m12.28,1.76v2.21h6.91v-2.21h-6.91m1.85,5.02h-1.85v9.06c1.69-.42,2.48-0.66,4.5-1.32a19.613,19.613,0,0,1-2.66-7.74h0.01m-10,.69h0m-6.19,7.65a26.819,26.819,0,0,0-1.36-5.86l2.42-.75a31.071,31.071,0,0,1,1.38,5.77l-2.44.84m8.69-1.11-2.05-.69a21.175,21.175,0,0,0,1.39-4.87l2.24,0.78a26,26,0,0,1-1.58,4.78m89.7-10.1a13.365,13.365,0,0,0,2-.15,30.149,30.149,0,0,0-.12,3.29v6.25a3.771,3.771,0,0,0,1.72,1.91c1.45,0.9,3.02,1.1,8.21,1.1,0.31,0.01.61,0.01,0.91,0.01a84.219,84.219,0,0,0,10.29-.63,16.223,16.223,0,0,0-.9,3.55c-2.69.09-7.07,0.18-9.15,0.18-4.95,0-7.4-.18-8.97-0.68a7.218,7.218,0,0,1-3.83-2.81,27.04,27.04,0,0,1-3.11,2.65c-0.51.39-.69,0.54-0.9,0.72l-0.46.36-1.48-3.4a19.457,19.457,0,0,0,4.5-2.93v-6.43h-2.05a11.325,11.325,0,0,0-1.84.15h0v-3.29a12.658,12.658,0,0,0,2.04.16c0.13,0,.25,0,0.37-0.01h2.77m-44.08-2.26a27.423,27.423,0,0,0,3.14-.19v3.35a31.378,31.378,0,0,0-3.36-.18h-1.53v11.89c0,2.57-.87,3.2-4.52,3.2-1.03,0-1.94-.03-3.36-0.09a11.756,11.756,0,0,0-.88-3.35,35.562,35.562,0,0,0,4.11.33c1.21,0,1.36-.06,1.36-0.72v-11.26h-6.06a32.648,32.648,0,0,0-3.42.18v-3.35a31.7,31.7,0,0,0,3.37.18h10.61c0.18,0,.36.01,0.54,0.01m-23.18,8.47a13.7,13.7,0,0,0-1.51-3.19c3.17-2.03,6.28-5.31,7.43-7.89l2.83,1.85a11.359,11.359,0,0,0-.99,1.32c-0.7.99-.97,1.37-1.75,2.33v11.77a23.77,23.77,0,0,0,.21,3.77h-3.75a25.419,25.419,0,0,0,.22-3.8h0v-5.23c0-1.25,0-1.43.06-3.46a15,15,0,0,1-2.75,2.53m54.36-11.34a14.256,14.256,0,0,0,1.85-.13v2.9a14.52,14.52,0,0,0-1.86-.12h-8.42a17.731,17.731,0,0,0-1.79.09v-2.87a11.628,11.628,0,0,0,1.67.13c0.12,0,.23,0,0.35-0.01h7.85c0.12,0,.23.01,0.35,0.01m-32.43-4.73a26.21,26.21,0,0,0,3.07-.18v3.32a29.905,29.905,0,0,0-3.28-.18h-8.5a31.192,31.192,0,0,0-3.35.18v-3.32a26.68,26.68,0,0,0,3.09.18h8.97m32.5-.2a25.366,25.366,0,0,0,3.02-.18v3.19a23.87,23.87,0,0,0-2.54-.13c-0.2,0-.4,0-0.6.01h-11.26v3.14c0,1.37-.03,2.12-0.06,3.58h12.17c0.16,0.01.32,0.01,0.48,0.01a14.05,14.05,0,0,0,2.15-.16v3.02a15.505,15.505,0,0,0-1.93-.12h-3.87a18.9,18.9,0,0,0,.79,3.73,13.022,13.022,0,0,0,3.08-2.65l2.11,2.06c-0.6.48-.6,0.48-2.41,1.94a11.572,11.572,0,0,1-1.67,1.2,13.13,13.13,0,0,0,4.32,4.63,12.843,12.843,0,0,0-2.11,2.81,19.012,19.012,0,0,1-4.74-6.13,21.6,21.6,0,0,1-2.11-7.59h-1.66V3226c1.38-.36,1.96-0.51,3.68-1.08v2.9a73.458,73.458,0,0,1-7.85,2.15c-0.47.11-.93,0.24-1.39,0.39l-0.72-3.32a16.02,16.02,0,0,0,3.23-.39v-9.88h-1.66a34.769,34.769,0,0,1-1.09,8.06,24.433,24.433,0,0,1-2.33,5.62,14.312,14.312,0,0,0-2.53-2.45c2.62-4.18,3.13-7.53,3.13-19.96a34.2,34.2,0,0,0-.12-3.79c1.03,0.09,2.3.14,3.57,0.14h10.59c0.11,0.01.22,0.01,0.33,0.01m17.73,2.95v-3.23a12.872,12.872,0,0,0,2.05.16c0.15,0,.3,0,0.45-0.01h4.64a14.715,14.715,0,0,0,1.88-.12c-0.06.69-.06,1.11-0.06,1.61a20.354,20.354,0,0,0,2,8.67,17.974,17.974,0,0,0,6.64,7.68,14.064,14.064,0,0,0-1.99,3.13,20.447,20.447,0,0,1-8.21-11.74,17.557,17.557,0,0,1-3.29,7.29,19.578,19.578,0,0,1-4.08,4.1,3.309,3.309,0,0,1,1.6-6.42,19.267,19.267,0,0,0,3.35-7.12,20.733,20.733,0,0,0,.57-4.15h-3.38a15.719,15.719,0,0,0-2.17.15m-104.07,5.79a11.847,11.847,0,0,0-1.48-2.98,16.821,16.821,0,0,0,3.17-2.72,12.744,12.744,0,0,0,2.38-3.8h3.32c1.06,2.21,1.99,3.29,4.65,5.2v-1.29c0-1.25-.06-2.27-0.12-3.16,0.82,0.08,1.65.12,2.48,0.12h7.96c0.19,0,.37.01,0.56,0.01a17.022,17.022,0,0,0,2.25-.16c-0.06.74-.09,1.49-0.09,3.32v6.63c-0.02,1.04.01,2.08,0.09,3.11q-0.99-.09-1.98-0.09h-3.3a13.107,13.107,0,0,0,1,3.74,14.118,14.118,0,0,0,3.62-3.18l2.11,2.25c-0.48.38-.48,0.38-1.87,1.52a24.638,24.638,0,0,1-2.47,1.83,14.907,14.907,0,0,0,4.76,4.21,22.506,22.506,0,0,0-2.08,2.96,19.452,19.452,0,0,1-5.22-5.44l0.06,2.69a88.362,88.362,0,0,1-8.94,2.51,9.009,9.009,0,0,0-1.02.27l-0.58-2.54c-2.05.6-4.71,1.25-6.7,1.61-1.03.21-2.63,0.51-3.05,0.6l-0.57-3.35a30.908,30.908,0,0,0,5.07-.6v-8.39h-1.86a26.639,26.639,0,0,0-2.82.15v-3.05a25.523,25.523,0,0,0,2.76.15h1.92v-2.15h-0.72a17.681,17.681,0,0,0-1.78.09v-1.38c-0.64.6-.85,0.78-1.51,1.31m99.63-1.73a30.831,30.831,0,0,0-5.19-5.64l2.41-2.24a36.9,36.9,0,0,1,5.29,5.46l-2.51,2.42m-35.44-2.63h1.32v-2.54a16.957,16.957,0,0,0-.18-3.02h3.47a21.822,21.822,0,0,0-.15,3.02v2.54h0.94a1.087,1.087,0,0,0,.18.01,8.077,8.077,0,0,0,1.39-.13v3.11a13.254,13.254,0,0,0-1.54-.09h-0.97v4.52c0.73-.3,1.15-0.51,2.33-1.08v3.02c-1.24.62-1.6,0.8-2.33,1.13v8.37c0,2.27-.78,2.93-3.5,2.93-0.57,0-.73,0-2.17-0.06a11.935,11.935,0,0,0-.73-3.11,20.076,20.076,0,0,0,2.45.21c0.66,0,.81-0.15.81-0.84v-6.24c-1.03.39-1.72,0.66-2.53,0.92a3.656,3.656,0,0,0-.46.18l-0.48-3.28a18.772,18.772,0,0,0,3.47-.96v-5.71h-1.26a12.58,12.58,0,0,0-1.94.15v-3.2a11.819,11.819,0,0,0,1.88.15m-31.83,3.11a13.613,13.613,0,0,0-1.9-2.81,18.988,18.988,0,0,0,5.4-4.09,10.281,10.281,0,0,0,1.45-2.09l2.9,2c-0.33.36-.33,0.36-0.9,1.01a28.636,28.636,0,0,1-6.95,5.98m102.4-16.89H1449.16a25.038,25.038,0,0,0-25.16,24.91v15.77a3.338,3.338,0,0,0,3.35,3.32h127.49a25.038,25.038,0,0,0,25.16-24.91v-15.77a3.338,3.338,0,0,0-3.35-3.32" transform="translate(-1424 -3195)"/>
</svg>
