<svg xmlns="http://www.w3.org/2000/svg" width="32" height="32" viewBox="0 0 32 32">
  <metadata><?xpacket begin="﻿" id="W5M0MpCehiHzreSzNTczkc9d"?>
<x:xmpmeta xmlns:x="adobe:ns:meta/" x:xmptk="Adobe XMP Core 5.6-c138 79.159824, 2016/09/14-01:09:01        ">
   <rdf:RDF xmlns:rdf="http://www.w3.org/1999/02/22-rdf-syntax-ns#">
      <rdf:Description rdf:about=""/>
   </rdf:RDF>
</x:xmpmeta>
<?xpacket end="w"?></metadata>
<defs>
    <style>
      .cls-1 {
        fill: #fff;
        fill-rule: evenodd;
      }
    </style>
  </defs>
  <path class="cls-1" d="M1215,2550a16,16,0,1,1,16-16A16,16,0,0,1,1215,2550Zm0-29.33a13.33,13.33,0,1,0,13.33,13.33,13.333,13.333,0,0,0-13.33-13.33h0Zm1.5,16a0.668,0.668,0,0,1-.67.66h-1.5a0.666,0.666,0,0,1-.66-0.66c0-4.43,3.75-4.02,3.75-7.34,0-1.1-1.26-2-2.55-2s-2.56.9-2.56,2a3.549,3.549,0,0,0,.18,1.12,0.674,0.674,0,0,1-.41.85,0.833,0.833,0,0,1-.22.03h-1.36a0.663,0.663,0,0,1-.64-0.49,5.487,5.487,0,0,1-.19-1.51c0-2.57,2.38-4.66,5.33-4.66s5.33,2.09,5.33,4.66c0,4.28-3.83,4.11-3.83,7.34h0Zm-1.5,2.66a2,2,0,1,1-2,2,2.006,2.006,0,0,1,2-2h0Z" transform="translate(-1199 -2518)"/>
</svg>
